<?xml version="1.0" standalone="no"?>
<!DOCTYPE svg PUBLIC "-//W3C//DTD SVG 20010904//EN"
 "http://www.w3.org/TR/2001/REC-SVG-20010904/DTD/svg10.dtd">
<svg version="1.0" xmlns="http://www.w3.org/2000/svg"
 width="1050.000000pt" height="1280.000000pt" viewBox="0 0 1050.000000 1280.000000"
 preserveAspectRatio="xMidYMid meet">
<metadata>
Created by potrace 1.15, written by Peter Selinger 2001-2017
</metadata>
<g transform="translate(0.000000,1280.000000) scale(0.100000,-0.100000)"
fill="#4b4e48" stroke="none">
<path d="M10264 12788 c-24 -11 -44 -44 -46 -73 -1 -11 11 -92 25 -180 76
-456 94 -850 50 -1080 -57 -306 -390 -847 -812 -1319 -57 -64 -132 -141 -166
-171 l-61 -54 -220 -26 c-488 -57 -800 -70 -994 -41 -221 34 -822 175 -847
199 -2 3 2 25 8 49 12 42 10 52 -21 139 -18 52 -36 97 -40 102 -3 4 -27 -6
-53 -23 l-47 -30 0 28 c1 15 5 59 10 97 5 39 6 73 2 77 -8 8 -686 228 -703
228 -11 0 -9 -21 7 -77 5 -19 0 -23 -38 -33 -23 -7 -56 -20 -73 -29 -21 -13
-43 -17 -72 -13 l-43 4 0 -65 0 -66 -92 42 c-202 90 -675 333 -889 455 -305
174 -626 376 -767 483 -303 227 -654 563 -1211 1157 -128 136 -135 142 -173
142 -51 0 -88 -35 -88 -84 0 -41 12 -56 245 -306 346 -370 790 -796 1035 -991
318 -254 1045 -680 1625 -951 110 -52 211 -99 225 -106 23 -11 22 -11 -12 -6
-33 5 -38 4 -38 -12 0 -11 15 -107 34 -215 l34 -196 -24 -84 c-30 -99 -27
-136 17 -269 16 -50 26 -96 23 -103 -4 -7 -44 -64 -90 -127 l-82 -115 -24
-220 c-24 -210 -24 -235 -17 -560 5 -187 11 -394 15 -460 l6 -121 64 -23 c35
-12 64 -26 64 -30 0 -4 -9 -56 -20 -116 -11 -60 -20 -111 -20 -113 0 -2 -55
-30 -123 -62 l-124 -59 -61 -209 c-56 -192 -63 -226 -82 -408 -11 -109 -23
-209 -25 -221 -5 -21 -6 -21 -162 20 l-158 41 -95 77 -96 78 -225 7 -225 7
-244 -92 -245 -93 -179 -174 -179 -174 -54 -217 c-59 -241 -99 -532 -87 -633
15 -132 71 -252 150 -326 38 -36 43 -66 16 -105 -43 -66 -79 -86 -577 -325
l-390 -186 -620 -104 c-611 -102 -626 -104 -1020 -134 -220 -17 -429 -34 -465
-38 -61 -7 -83 -18 -365 -186 -165 -98 -306 -184 -313 -191 -11 -9 22 -18 158
-40 94 -15 167 -31 163 -36 -4 -4 -39 -24 -78 -45 -38 -20 -71 -38 -73 -39 -2
-1 175 -371 182 -382 1 -1 133 14 293 34 l291 37 199 -47 c109 -26 288 -68
398 -94 l200 -48 475 0 c456 0 479 -1 577 -23 127 -28 163 -28 199 0 39 29
181 156 276 247 l78 73 227 20 c235 20 384 20 708 -2 76 -5 140 -8 141 -7 1 1
6 66 10 145 4 78 10 141 14 140 4 -2 49 -46 98 -99 l91 -96 41 -219 c23 -120
45 -222 48 -226 4 -4 65 -27 136 -52 71 -25 130 -47 132 -49 2 -2 7 -50 10
-108 l7 -104 116 -160 c64 -88 127 -172 141 -187 14 -15 147 -94 295 -174 149
-80 275 -151 282 -157 6 -7 13 -28 15 -47 3 -39 9 -37 -88 -25 l-50 7 -98
-439 -97 -438 7 -162 7 -162 266 -188 266 -188 405 -36 405 -37 268 95 c147
53 269 94 271 92 2 -2 31 -98 66 -214 l62 -210 51 -48 c59 -54 138 -97 180
-97 39 0 131 50 193 105 46 40 57 58 122 212 113 269 157 447 118 486 -10 9
-30 17 -46 17 -20 0 -44 14 -83 50 -65 60 -161 195 -151 212 4 7 23 32 42 55
l34 43 -42 291 c-22 161 -38 295 -33 300 4 4 114 51 243 105 129 53 305 126
390 161 85 35 162 67 170 70 8 4 -6 -17 -32 -45 -58 -62 -60 -86 -12 -133 l35
-34 158 2 158 3 94 -93 c56 -55 114 -103 143 -117 46 -22 54 -23 105 -12 31 7
98 33 149 58 l93 46 -24 32 c-13 17 -63 83 -111 148 l-87 116 57 114 c31 62
57 114 58 115 2 2 52 -20 113 -49 l110 -52 47 -88 c26 -48 50 -88 54 -88 4 0
6 70 5 155 l-2 155 -46 109 c-32 77 -69 140 -121 211 l-74 100 0 94 0 94 83
75 c45 41 95 85 110 98 l28 24 -18 224 c-13 162 -22 228 -32 238 -8 8 -163
138 -346 288 l-331 273 -435 -34 c-239 -18 -447 -34 -464 -34 l-30 0 -109 288
-110 287 -135 132 -136 132 -130 50 c-71 27 -220 84 -330 127 -110 42 -204 80
-209 85 -5 4 19 50 54 105 43 67 59 99 51 104 -7 4 -94 35 -194 69 l-182 62
-105 311 c-58 172 -105 315 -105 319 0 4 47 51 105 105 58 53 138 129 178 167
l74 71 -53 115 c-28 64 -52 121 -52 126 0 6 56 174 125 375 l125 365 52 360
c28 198 51 373 51 388 0 16 -37 200 -81 410 l-82 382 6 222 5 222 62 188 c34
103 65 191 69 195 3 4 44 -4 91 -18 142 -42 394 -102 605 -146 190 -38 211
-41 420 -45 243 -6 362 2 775 48 210 24 284 36 315 51 51 26 283 259 407 408
333 403 591 819 690 1113 75 226 86 538 33 992 -19 162 -62 429 -76 473 -17
51 -76 74 -125 50z"/>
</g>
</svg>
