<?xml version="1.0" standalone="no"?>
<!DOCTYPE svg PUBLIC "-//W3C//DTD SVG 20010904//EN"
 "http://www.w3.org/TR/2001/REC-SVG-20010904/DTD/svg10.dtd">
<svg version="1.0" xmlns="http://www.w3.org/2000/svg"
 width="814.000000pt" height="1280.000000pt" viewBox="0 0 814.000000 1280.000000"
 preserveAspectRatio="xMidYMid meet">
<metadata>
Created by potrace 1.15, written by Peter Selinger 2001-2017
</metadata>
<g transform="translate(0.000000,1280.000000) scale(0.100000,-0.100000)"
fill="#000000" stroke="none">
<path d="M7210 12793 c-8 -3 -62 -26 -120 -51 -152 -65 -262 -101 -368 -123
-95 -19 -142 -41 -142 -65 0 -19 24 -18 128 5 184 41 471 159 521 215 24 26
17 32 -19 19z"/>
<path d="M6246 12724 c-11 -28 -6 -98 8 -126 8 -16 11 -28 7 -28 -4 0 -41 21
-82 48 -73 47 -75 47 -159 47 -69 0 -93 -5 -128 -23 -23 -12 -53 -22 -65 -22
-12 0 -38 -9 -57 -20 -19 -11 -84 -45 -145 -77 -87 -46 -128 -76 -199 -144
l-90 -86 -7 -69 c-6 -63 -10 -71 -44 -101 -44 -38 -168 -103 -310 -163 -127
-54 -215 -104 -340 -193 -148 -106 -275 -164 -408 -187 -82 -14 -123 -31 -224
-91 -46 -27 -135 -67 -196 -88 -62 -22 -154 -55 -205 -75 -51 -20 -97 -34
-102 -31 -5 3 -12 27 -16 53 -4 26 -17 77 -29 114 l-22 66 90 91 90 92 -7 45
c-8 58 -22 84 -46 84 -26 0 -94 -62 -110 -99 -6 -16 -29 -41 -50 -56 -21 -14
-68 -58 -105 -96 -55 -57 -66 -73 -60 -92 21 -70 17 -101 -25 -187 -53 -108
-75 -131 -181 -186 -93 -48 -139 -81 -270 -190 -46 -39 -113 -91 -149 -116
-74 -52 -305 -174 -395 -208 -33 -13 -125 -52 -205 -88 -80 -35 -235 -100
-345 -143 -211 -84 -376 -165 -383 -188 -7 -22 46 -8 183 49 66 27 203 81 305
120 102 40 213 87 246 105 34 19 94 46 135 61 41 14 135 55 209 91 210 100
329 178 483 318 88 79 182 140 242 156 54 14 129 94 178 188 34 68 37 80 37
158 0 83 1 85 32 111 17 15 69 62 115 106 46 43 87 75 91 71 4 -4 -37 -49 -91
-101 l-98 -94 26 -82 c17 -53 25 -100 24 -134 -2 -32 3 -59 11 -68 19 -24 90
-20 167 10 37 14 122 45 188 68 66 23 172 70 235 103 94 50 138 67 241 92 178
42 246 72 364 161 151 113 236 163 373 220 153 62 206 89 256 129 21 17 43 31
49 31 21 0 78 53 91 85 16 38 52 53 83 37 26 -14 106 4 128 28 27 30 10 40
-58 34 -57 -6 -61 -5 -47 10 9 9 42 22 73 28 68 14 138 3 225 -37 85 -39 131
-84 197 -190 33 -54 93 -136 133 -184 40 -47 98 -115 128 -151 31 -36 67 -87
80 -113 14 -26 31 -51 40 -54 10 -4 13 -14 9 -37 -6 -27 0 -39 45 -90 52 -60
58 -76 20 -56 -29 15 -52 6 -43 -17 4 -10 22 -45 41 -77 33 -56 34 -60 19 -85
-14 -25 -14 -30 13 -92 15 -36 31 -80 35 -99 4 -18 16 -51 26 -74 10 -22 19
-54 19 -71 0 -16 12 -48 25 -70 28 -46 30 -55 12 -55 -33 0 -37 -23 -12 -65
14 -24 22 -50 19 -62 -3 -11 6 -56 19 -99 14 -44 28 -97 32 -119 4 -22 21 -73
37 -114 41 -103 86 -297 98 -416 14 -141 60 -324 116 -457 27 -64 32 -149 13
-224 -14 -53 -8 -61 27 -45 l26 11 -7 -42 c-10 -62 -35 -109 -67 -127 -34 -20
-35 -36 -4 -56 19 -13 29 -14 45 -6 30 16 31 15 31 -36 0 -45 1 -46 19 -29 11
10 35 48 55 84 19 37 41 76 49 86 14 18 15 18 26 -17 14 -40 47 -87 63 -87 12
0 9 16 -22 128 -11 42 -24 138 -30 225 -13 182 -18 213 -33 198 -6 -6 -14 -77
-18 -159 -6 -135 -22 -222 -40 -222 -3 0 -8 71 -11 158 -4 123 -8 164 -22 191
-12 22 -20 73 -26 157 -10 128 -17 157 -49 174 -23 12 -69 130 -118 300 -43
152 -42 146 -20 142 29 -5 29 20 3 124 -13 54 -27 126 -31 159 l-6 60 29 -50
c15 -27 40 -67 54 -87 14 -21 33 -69 42 -109 20 -91 51 -159 70 -159 19 0 20
-8 -3 81 -10 41 -31 175 -46 299 -38 324 -45 354 -73 358 -26 4 -42 37 -42 88
0 24 -9 43 -29 65 -20 21 -33 48 -40 85 -6 30 -16 80 -22 112 -15 78 -37 130
-59 137 -17 5 -23 18 -71 133 -12 29 -30 57 -40 63 -14 7 -19 21 -19 49 0 38
-1 39 -44 45 l-43 7 -6 58 c-5 60 -29 110 -53 110 -8 0 -19 11 -23 24 -5 12
-26 33 -45 44 -20 12 -36 28 -36 36 0 9 -10 21 -22 27 -13 7 -44 29 -71 49
l-47 38 50 7 c80 11 57 33 -53 50 -34 5 -40 11 -62 60 -45 102 -166 192 -243
182 -41 -5 -129 10 -137 24 -3 4 22 16 55 26 47 14 65 24 75 44 11 21 23 27
61 32 58 6 81 26 64 57 -11 21 -11 22 51 18 60 -3 63 -2 69 22 9 38 35 31 155
-41 90 -53 116 -75 157 -128 53 -70 82 -96 98 -86 15 10 4 40 -50 130 -53 89
-95 198 -86 222 5 11 14 13 34 8 35 -9 37 -12 23 -29 -16 -19 11 -73 42 -85
24 -10 49 -52 161 -271 40 -80 85 -167 99 -195 29 -56 54 -120 137 -345 97
-260 158 -390 293 -621 129 -220 310 -578 371 -734 30 -77 86 -214 124 -305
80 -191 132 -345 132 -395 0 -19 8 -50 17 -70 14 -29 15 -38 4 -59 -12 -21
-10 -33 7 -84 18 -55 19 -61 4 -76 -15 -14 -14 -20 7 -68 59 -134 71 -165 71
-190 0 -14 11 -50 25 -80 14 -29 25 -70 25 -91 0 -20 11 -65 25 -99 14 -34 29
-88 35 -121 5 -32 23 -84 41 -115 39 -71 106 -162 119 -162 17 0 11 46 -10 73
-14 18 -20 41 -20 79 0 46 -7 63 -50 133 -28 44 -50 85 -50 91 0 6 9 19 20 29
11 10 20 22 20 27 0 4 -27 47 -60 95 -33 47 -59 88 -57 90 2 2 18 -2 35 -8 17
-6 36 -9 42 -7 6 2 -28 57 -74 123 -47 66 -86 124 -86 130 0 5 22 -12 48 -38
45 -45 72 -59 72 -37 0 5 -20 40 -44 77 -66 102 -106 173 -99 173 4 0 26 -21
49 -47 34 -39 45 -46 55 -36 10 10 9 20 -5 50 -10 21 -24 59 -31 86 -18 66
-147 391 -229 575 -25 57 -66 158 -91 225 -26 67 -54 140 -63 161 -45 105
-265 522 -357 676 -117 195 -227 437 -271 594 -17 59 -74 190 -164 376 -76
157 -165 342 -198 411 -34 73 -69 133 -83 142 -32 23 -144 24 -153 1z m274
-1294 c0 -11 -2 -20 -4 -20 -2 0 -6 9 -9 20 -3 11 -1 20 4 20 5 0 9 -9 9 -20z
m307 -792 c4 -37 2 -58 -4 -58 -14 0 -23 49 -22 114 0 43 2 47 10 27 5 -14 12
-51 16 -83z m81 -1038 c3 -117 -6 -122 -32 -18 -24 101 -21 132 14 126 12 -3
16 -23 18 -108z"/>
<path d="M7110 12580 c-11 -11 -20 -28 -20 -38 0 -29 -9 -32 -41 -14 -34 20
-62 9 -67 -27 -4 -26 -14 -27 -37 -1 -22 24 -33 25 -57 3 -12 -11 -34 -17 -59
-16 -33 2 -40 -2 -45 -21 l-6 -24 -24 25 c-33 33 -58 27 -62 -15 -2 -19 -11
-36 -22 -42 -31 -17 -49 -40 -44 -55 21 -54 233 -7 499 112 131 58 135 60 135
79 0 10 -12 14 -45 14 -34 0 -47 5 -55 20 -6 11 -15 20 -20 20 -6 0 -19 -9
-30 -20z"/>
<path d="M5940 12397 c0 -9 13 -23 29 -31 32 -17 57 -64 70 -130 9 -48 33 -75
84 -97 35 -15 52 -1 44 34 -7 25 -31 53 -85 99 -21 17 -32 35 -32 52 0 34 -38
75 -77 82 -26 5 -33 3 -33 -9z"/>
<path d="M5741 12115 l-21 -36 -67 7 c-38 4 -76 13 -85 22 -18 15 -48 10 -48
-8 0 -5 7 -10 15 -10 17 0 53 -66 42 -77 -4 -3 -21 4 -39 17 l-31 23 -100 -34
c-108 -37 -177 -86 -177 -127 0 -32 17 -27 66 18 23 21 55 42 71 45 15 4 41
11 56 17 40 15 45 2 11 -33 -39 -41 -194 -117 -274 -133 -71 -15 -87 -12 -69
11 10 12 10 16 -2 24 -17 12 -39 7 -104 -19 -27 -12 -62 -24 -77 -26 -37 -8
-152 -88 -156 -108 -5 -25 9 -23 88 12 67 29 110 38 110 22 0 -16 -120 -123
-214 -192 -129 -92 -261 -158 -349 -173 -53 -9 -72 -9 -85 1 -9 7 -23 15 -30
18 -19 9 -142 -47 -160 -73 -50 -71 -48 -70 -71 -49 -24 21 -51 15 -58 -14 -5
-20 -23 -28 -23 -10 0 23 -26 7 -79 -49 -40 -42 -70 -64 -106 -76 -27 -10 -97
-37 -155 -60 -113 -47 -261 -95 -288 -95 -45 0 -153 -72 -347 -230 -71 -59
-166 -132 -210 -162 -222 -154 -604 -342 -782 -385 -37 -9 -76 -25 -86 -35
-22 -22 -58 -37 -98 -42 -16 -2 -40 -11 -53 -20 -14 -9 -38 -16 -53 -16 -15 0
-37 -7 -47 -15 -11 -8 -33 -15 -50 -15 -20 0 -38 -9 -55 -29 -16 -17 -66 -45
-126 -70 -112 -48 -216 -103 -235 -126 -21 -25 23 -19 83 12 63 32 238 95 367
132 52 15 154 57 226 94 72 36 203 96 290 132 296 125 523 252 713 398 40 31
77 57 82 57 4 0 37 26 71 58 129 119 206 166 338 205 47 14 112 37 145 52 33
15 87 37 120 50 144 55 252 102 430 186 150 71 207 93 271 104 93 16 238 71
312 118 99 63 208 142 279 201 99 85 144 109 253 140 52 15 99 31 105 35 31
26 383 193 454 216 47 16 97 40 114 55 l32 28 -37 21 c-20 12 -39 28 -42 36
-9 25 -33 16 -55 -20z"/>
<path d="M5680 12106 c0 -9 7 -16 16 -16 9 0 14 5 12 12 -6 18 -28 21 -28 4z"/>
<path d="M6280 11978 c0 -39 109 -166 131 -152 18 11 8 35 -33 80 -54 58 -98
91 -98 72z"/>
<path d="M4544 11515 c-18 -14 -18 -14 3 -15 23 0 39 15 25 24 -5 3 -18 -1
-28 -9z"/>
<path d="M4453 11475 c-13 -9 -49 -29 -82 -45 -75 -37 -89 -56 -35 -46 66 13
154 67 154 96 0 14 -12 12 -37 -5z"/>
<path d="M4067 11394 c-14 -14 -6 -24 19 -24 16 0 24 5 22 13 -5 14 -31 21
-41 11z"/>
<path d="M3953 11343 c-18 -7 -16 -43 3 -50 18 -7 35 14 31 36 -2 16 -16 22
-34 14z"/>
<path d="M6900 10596 c0 -97 77 -434 151 -664 48 -148 64 -182 84 -182 23 0
19 23 -45 218 -66 205 -110 375 -135 532 -10 58 -21 113 -27 123 -16 30 -28
19 -28 -27z"/>
<path d="M973 10249 c-173 -29 -363 -152 -419 -272 -48 -104 -23 -232 56 -285
32 -22 42 -24 126 -18 97 6 110 9 194 59 65 39 77 65 86 195 9 126 19 144 98
182 37 17 74 43 83 57 17 25 16 26 -12 49 -30 24 -97 45 -137 43 -13 -1 -46
-5 -75 -10z m131 -68 c16 -6 11 -10 -27 -19 -59 -15 -93 -58 -116 -149 -10
-38 -24 -79 -31 -92 -12 -23 -13 -23 -23 -6 -6 11 -11 47 -11 81 -1 54 3 68
29 105 46 66 125 101 179 80z m-249 -64 c-11 -17 -18 -60 -23 -138 l-7 -114
-27 -3 c-22 -3 -29 2 -34 23 -14 55 27 192 72 240 30 32 42 27 19 -8z m-157
-144 c-3 -49 -7 -94 -7 -100 -3 -42 -41 23 -41 69 0 23 40 118 49 118 3 0 3
-39 -1 -87z"/>
<path d="M7076 10163 c9 -64 65 -268 115 -424 55 -168 95 -248 139 -277 43
-29 52 -46 75 -149 21 -95 17 -113 -25 -113 -39 0 -39 -12 5 -112 86 -198 291
-436 337 -390 10 10 -4 28 -60 80 -60 56 -73 74 -81 113 -6 25 -20 67 -31 94
-34 80 -67 186 -89 287 -12 54 -39 144 -61 200 -96 242 -103 256 -121 227 -19
-32 -49 45 -124 316 -26 93 -51 175 -57 182 -21 26 -29 13 -22 -34z"/>
<path d="M1730 10164 c-11 -12 -11 -18 1 -30 13 -12 18 -12 37 6 12 12 20 25
17 31 -9 14 -41 11 -55 -7z"/>
<path d="M1604 10105 c-3 -8 -3 -19 0 -24 9 -13 36 -2 36 14 0 19 -30 27 -36
10z"/>
<path d="M1534 10085 c-7 -17 4 -37 17 -30 12 8 12 45 -1 45 -6 0 -13 -7 -16
-15z"/>
<path d="M1352 9793 c-8 -14 -26 -25 -47 -29 -20 -3 -42 -15 -49 -26 -14 -20
-15 -20 -45 -2 -27 16 -35 17 -64 5 -17 -7 -47 -17 -64 -22 -18 -6 -33 -14
-33 -19 0 -6 -9 -10 -19 -10 -10 0 -22 -7 -25 -16 -4 -11 -14 -14 -33 -10 -37
8 -85 -22 -106 -67 -30 -62 -41 -227 -28 -409 11 -154 58 -501 83 -616 13 -60
28 -78 29 -35 0 15 4 37 8 47 5 14 17 -13 40 -100 18 -65 75 -228 126 -361 52
-132 121 -332 155 -442 66 -223 98 -308 129 -347 22 -28 44 -96 82 -247 17
-68 30 -98 59 -133 25 -30 48 -78 70 -142 18 -53 45 -119 58 -147 14 -27 49
-113 77 -190 42 -113 56 -140 71 -140 21 0 21 5 7 83 -6 28 -7 52 -2 52 12 0
43 -105 109 -369 68 -270 75 -291 101 -291 23 0 26 -6 50 -92 11 -39 33 -96
49 -127 25 -46 30 -68 30 -123 0 -74 6 -98 25 -98 20 0 25 35 25 182 0 121 8
166 24 140 2 -4 8 -97 12 -205 4 -108 10 -197 15 -197 13 0 29 61 29 111 0 63
14 99 40 99 29 0 47 35 63 123 8 43 17 81 20 84 4 3 14 -13 23 -36 26 -65 39
-46 37 50 -3 122 -13 223 -24 239 -8 13 -12 12 -24 -4 -20 -26 -32 -13 -51 52
-9 31 -23 81 -31 110 -8 28 -18 52 -22 52 -5 0 -12 -28 -17 -62 -5 -35 -13
-63 -19 -63 -16 0 -52 62 -60 102 -4 21 -17 52 -29 68 -33 43 -87 154 -130
267 -32 81 -42 98 -67 108 -54 23 -78 75 -119 263 -23 103 -40 126 -40 52 0
-34 -5 -47 -20 -55 -16 -8 -20 -21 -20 -58 -1 -47 -1 -46 -41 58 -58 152 -75
191 -85 193 -5 1 -18 -18 -30 -42 l-21 -44 -17 48 c-22 68 -21 105 4 105 14 0
22 11 29 38 15 53 14 102 -2 102 -16 0 -37 -41 -37 -70 0 -31 -17 -24 -29 11
-13 38 -14 86 -2 93 4 3 11 23 15 43 3 21 22 58 41 82 36 45 43 65 25 76 -13
8 -88 -61 -107 -99 -17 -34 -52 -76 -64 -76 -3 0 -12 34 -18 76 -13 89 -42
161 -68 171 -35 12 -52 36 -65 91 -10 47 -10 56 2 60 19 7 70 64 70 79 0 23
-48 14 -74 -14 -14 -15 -27 -25 -30 -22 -11 10 -9 88 2 102 7 8 32 22 57 32
48 18 57 38 26 55 -32 17 -58 12 -79 -15 -11 -14 -23 -25 -26 -25 -4 0 -23 34
-43 77 l-37 76 23 16 c62 43 86 70 74 81 -8 9 -23 9 -62 -3 -45 -13 -51 -13
-64 2 -58 66 -158 408 -174 597 -5 67 -9 77 -35 95 -28 20 -28 20 -28 135 0
147 17 152 59 20 37 -115 99 -226 127 -226 22 0 17 45 -15 118 -35 81 -57 164
-66 252 -10 93 21 196 38 130 7 -26 36 -37 49 -19 14 22 0 129 -22 167 -11 19
-38 55 -60 81 -22 26 -40 51 -40 54 0 12 41 -13 90 -54 56 -47 100 -58 136
-35 20 14 23 20 13 32 -6 8 -20 14 -30 14 -24 0 -25 27 -3 78 13 32 17 35 25
20 6 -10 21 -18 33 -18 27 0 36 -17 36 -63 0 -18 4 -48 10 -67 5 -19 19 -136
30 -260 27 -308 34 -342 81 -397 15 -18 31 -50 34 -70 10 -64 34 -119 65 -152
17 -17 30 -35 30 -41 0 -21 42 -120 51 -120 5 0 13 10 18 23 8 20 9 18 20 -18
6 -22 18 -69 26 -104 22 -91 44 -111 64 -59 6 17 12 10 30 -40 15 -40 36 -72
62 -95 31 -28 39 -43 39 -70 0 -33 32 -142 52 -181 6 -10 25 -38 42 -61 20
-26 40 -69 50 -111 22 -88 58 -154 96 -176 19 -11 30 -25 30 -39 0 -32 79
-177 109 -199 47 -35 63 -54 93 -115 17 -33 45 -74 63 -91 18 -17 43 -51 55
-75 28 -56 68 -99 92 -99 10 0 35 -16 56 -35 l37 -35 -30 6 c-61 11 -70 10
-70 -11 0 -28 67 -62 139 -70 99 -12 120 -32 64 -61 -18 -9 -36 -22 -40 -28
-9 -14 9 -34 35 -38 15 -2 31 -21 52 -62 36 -73 126 -173 144 -161 9 5 11 20
7 46 -6 36 -4 39 21 44 103 21 117 41 45 62 -24 6 -57 21 -75 31 -18 11 -44
22 -58 26 -31 7 -48 36 -21 36 9 0 46 -9 80 -20 91 -28 128 -26 161 9 15 16
41 32 59 36 18 4 39 17 48 30 12 19 26 23 82 27 67 5 106 21 230 94 42 26 51
20 31 -17 -14 -27 -14 -171 0 -198 7 -11 20 -21 31 -21 21 0 45 63 57 148 5
38 4 42 -16 42 -39 0 -22 51 48 135 44 53 45 65 6 58 -14 -3 -39 3 -60 16 -46
27 -72 27 -81 -1 -4 -15 -1 -25 11 -35 17 -12 14 -17 -41 -70 -74 -72 -97 -83
-208 -93 -72 -7 -91 -12 -103 -29 -20 -29 -52 -26 -135 10 -38 17 -76 28 -84
25 -27 -10 -14 -34 41 -71 89 -62 68 -80 -46 -39 -85 30 -103 43 -119 87 -7
18 -16 42 -21 55 l-9 23 -29 -22 c-43 -32 -75 -19 -151 60 -36 38 -75 74 -87
80 -12 6 -39 39 -58 74 -20 34 -55 80 -76 103 -30 31 -54 75 -97 179 -62 151
-88 182 -80 96 3 -28 4 -51 2 -51 -12 0 -66 129 -78 187 -17 83 -32 123 -46
123 -5 0 -10 -13 -10 -29 0 -36 -15 -48 -29 -23 -5 10 -21 64 -36 121 -35 140
-53 181 -77 181 -24 0 -41 39 -63 150 -23 120 -33 146 -60 164 -17 11 -31 39
-48 93 -13 42 -28 78 -35 81 -6 2 -17 -11 -25 -29 l-13 -32 -34 113 c-29 98
-38 116 -63 129 -17 9 -40 39 -57 72 -16 30 -36 61 -45 69 -9 7 -35 50 -57 94
-53 107 -64 183 -78 591 -7 176 -15 334 -19 350 -7 30 -8 30 -19 8z m-387
-212 c7 -12 -12 -24 -25 -16 -11 7 -4 25 10 25 5 0 11 -4 15 -9z m572 -2493
c-3 -8 -6 -5 -6 6 -1 11 2 17 5 13 3 -3 4 -12 1 -19z m290 -420 c-3 -8 -6 -5
-6 6 -1 11 2 17 5 13 3 -3 4 -12 1 -19z m39 -93 c16 -40 18 -55 5 -55 -9 0
-31 53 -31 76 0 24 11 15 26 -21z m-89 3 c-3 -8 -6 -5 -6 6 -1 11 2 17 5 13 3
-3 4 -12 1 -19z m212 -197 c21 -90 28 -167 12 -126 -5 11 -16 60 -26 109 -9
49 -20 96 -23 104 -3 10 -1 13 5 9 6 -4 21 -47 32 -96z m109 -201 l0 -85 -14
55 c-8 30 -17 84 -20 120 l-5 65 20 -35 c16 -28 20 -52 19 -120z m82 -185 c0
-77 -4 -125 -10 -125 -6 0 -10 48 -10 125 0 77 4 125 10 125 6 0 10 -48 10
-125z m94 -41 c17 -44 -3 -202 -25 -189 -10 7 -12 147 -3 183 7 26 19 29 28 6z
m104 -124 c4 -36 -32 -205 -48 -230 -16 -25 -12 123 6 201 17 75 37 88 42 29z"/>
<path d="M350 9669 c-173 -127 -163 -117 -155 -157 9 -48 30 -87 57 -106 34
-24 44 -5 29 53 -16 65 -10 81 47 127 119 97 168 155 130 154 -7 -1 -56 -32
-108 -71z"/>
<path d="M398 9603 c-34 -37 -68 -94 -68 -115 0 -24 48 -58 81 -58 34 0 38 19
9 45 -11 10 -20 27 -20 37 0 10 9 36 20 58 33 65 23 80 -22 33z"/>
<path d="M480 9481 c-11 -22 -5 -44 22 -82 24 -32 15 -54 -24 -68 -40 -14 -71
-14 -103 1 -29 13 -44 1 -45 -37 0 -11 -5 -27 -10 -35 -8 -13 -14 -12 -45 4
-31 17 -38 18 -46 5 -5 -7 -6 -30 -3 -49 12 -63 10 -75 -13 -78 -19 -3 -22 3
-28 52 -4 31 -11 56 -15 56 -4 0 -15 -9 -25 -20 -16 -18 -22 -52 -25 -147 0
-7 -11 -13 -24 -13 -18 0 -27 8 -35 30 -12 37 -28 38 -41 4 -16 -40 -12 -59
20 -99 37 -46 37 -53 5 -61 -30 -7 -52 -41 -37 -56 23 -23 68 8 199 133 154
147 295 266 424 357 87 62 108 87 89 106 -6 6 -26 1 -61 -17 -54 -28 -67 -27
-116 9 -38 29 -49 30 -63 5z"/>
<path d="M7190 9234 c0 -202 9 -260 57 -378 45 -108 97 -170 135 -161 18 5 33
-1 55 -19 61 -51 70 -20 23 73 -16 33 -43 104 -60 158 -38 120 -57 163 -70
163 -16 0 -12 -35 17 -167 15 -68 24 -126 20 -129 -22 -22 -92 105 -112 205
-7 36 -21 140 -30 231 -9 90 -21 171 -25 180 -6 9 -10 -51 -10 -156z"/>
<path d="M6797 8950 c-3 -8 -10 -75 -16 -147 -11 -133 -26 -194 -54 -209 -8
-5 -26 -32 -40 -61 -21 -40 -38 -58 -82 -83 -30 -17 -57 -35 -60 -40 -3 -5
-20 -16 -38 -25 -19 -9 -54 -46 -87 -91 -127 -177 -132 -183 -171 -198 -22 -9
-52 -16 -67 -16 -15 0 -47 -9 -71 -20 -24 -11 -49 -20 -57 -20 -7 0 -26 -24
-40 -52 -33 -66 -33 -67 -46 -45 -9 18 -11 18 -30 0 -24 -22 -68 -106 -78
-149 -13 -55 5 -61 38 -15 27 37 31 40 37 21 3 -11 10 -20 16 -20 11 0 59 93
59 115 0 9 20 35 43 59 41 41 47 43 99 42 89 -1 160 41 212 125 51 83 74 111
108 133 16 10 44 41 64 68 20 27 62 66 92 86 31 20 83 71 117 112 34 41 69 76
78 78 10 2 24 16 32 32 32 62 57 224 38 244 -4 4 -15 -3 -24 -15 -20 -27 -39
-17 -39 19 -1 37 -26 92 -33 72z"/>
<path d="M7440 8868 c0 -33 93 -202 135 -247 57 -61 95 -79 132 -62 31 14 31
14 -63 85 -55 42 -76 66 -118 141 -46 81 -86 120 -86 83z"/>
<path d="M6990 8750 c-6 -12 -10 -33 -8 -47 3 -26 4 -26 21 -9 18 19 23 61 8
71 -6 3 -15 -4 -21 -15z"/>
<path d="M1100 8606 c0 -19 47 -56 71 -56 26 0 24 17 -7 45 -30 27 -64 33 -64
11z"/>
<path d="M7231 8575 c-116 -38 -120 -65 -9 -65 69 0 71 -1 54 -19 -9 -10 -55
-33 -102 -51 -117 -44 -140 -71 -73 -85 39 -9 33 -24 -23 -55 -64 -35 -88 -59
-88 -87 0 -16 -17 -39 -52 -71 -104 -93 -168 -162 -168 -179 0 -10 -11 -35
-25 -55 -14 -20 -25 -41 -25 -46 0 -15 42 -39 88 -52 23 -6 42 -15 42 -20 0
-5 -46 -11 -102 -12 -113 -3 -134 -16 -74 -45 59 -27 53 -31 -136 -93 -54 -17
-123 -46 -154 -65 -31 -19 -69 -37 -84 -40 -56 -12 -65 -55 -12 -55 15 0 42
-9 61 -21 l33 -20 -21 -23 c-30 -32 -26 -53 13 -66 18 -6 44 -22 57 -36 28
-30 20 -49 -34 -79 -45 -24 -50 -55 -9 -56 15 0 36 -4 46 -8 18 -7 18 -8 -5
-14 -13 -4 -56 -7 -95 -7 -62 0 -76 4 -115 30 -24 16 -54 30 -66 30 -24 0 -73
-20 -72 -29 0 -6 141 -75 199 -98 l25 -11 -27 -12 c-20 -9 -34 -10 -58 -1 -52
18 -169 95 -170 111 -1 64 -140 124 -140 60 0 -14 15 -24 59 -41 59 -21 60
-22 45 -45 -14 -21 -14 -29 -1 -75 l15 -51 -25 24 c-14 12 -38 42 -53 66 -26
39 -29 41 -44 27 -30 -30 -25 -44 67 -171 20 -28 37 -60 37 -70 0 -16 -3 -15
-17 6 -10 14 -25 38 -33 55 -10 21 -37 41 -88 67 -128 66 -199 41 -81 -29 90
-52 148 -123 191 -235 34 -87 70 -227 62 -237 -2 -2 -13 8 -25 22 -11 15 -27
27 -35 27 -21 0 -18 -106 7 -202 11 -44 19 -88 17 -97 -2 -9 -28 28 -59 83
-52 93 -79 126 -79 94 0 -7 21 -60 45 -118 25 -58 45 -110 45 -116 0 -7 -9
-14 -20 -17 -12 -3 -20 -14 -20 -26 0 -34 -28 -37 -60 -6 -45 43 -46 15 -7
-111 19 -60 51 -161 71 -225 35 -113 54 -147 75 -135 6 4 13 22 17 42 5 26 9
32 19 24 15 -12 25 -3 25 25 0 11 11 36 25 55 20 26 25 46 25 89 0 61 6 74 33
84 14 5 16 14 11 49 l-6 43 27 -40 c34 -49 76 -95 87 -95 17 0 7 48 -22 105
-33 68 -39 100 -14 91 9 -3 17 -6 19 -6 2 0 53 -58 114 -130 61 -71 116 -130
121 -130 25 0 16 25 -34 97 -139 198 -176 256 -176 274 0 38 20 17 96 -97 42
-64 98 -142 125 -174 52 -63 58 -77 34 -86 -24 -10 -18 -26 36 -109 27 -42 48
-79 46 -82 -6 -5 -143 105 -176 141 -53 57 -55 21 -3 -73 37 -70 38 -96 2 -73
-26 16 -50 15 -50 -1 0 -15 59 -100 180 -257 74 -97 125 -194 118 -226 -3 -13
-51 51 -131 175 -43 66 -67 86 -67 55 0 -9 36 -86 80 -170 44 -84 80 -155 80
-158 0 -13 -28 -5 -45 14 -12 13 -31 20 -55 20 -68 0 -172 97 -240 225 -21 38
-42 71 -49 73 -18 6 -13 -48 10 -116 16 -46 18 -66 10 -76 -13 -16 14 -129 46
-191 20 -39 65 -156 78 -205 l7 -25 -26 24 c-14 14 -29 22 -32 18 -6 -5 17
-150 33 -212 9 -35 -14 -3 -27 38 -8 25 -19 39 -35 43 -20 5 -23 13 -30 86 -3
45 -11 93 -17 107 -10 25 -11 25 -18 6 -10 -23 -13 -279 -4 -312 4 -14 14 -23
25 -23 26 0 42 -36 34 -76 -5 -31 -25 -49 -25 -23 0 6 -19 38 -42 71 l-43 61
-6 161 c-8 188 -29 279 -67 284 -26 4 -28 -10 -8 -86 28 -103 33 -435 6 -406
-11 14 -29 96 -45 208 -43 319 -68 464 -85 501 l-18 40 -1 -32 c-1 -17 4 -44
9 -58 16 -42 37 -193 55 -385 20 -218 48 -415 85 -590 33 -154 49 -314 32
-324 -16 -10 -20 2 -41 140 -11 71 -27 149 -36 174 -10 29 -18 93 -21 180 -3
74 -7 150 -10 168 -8 52 -25 26 -18 -27 4 -30 2 -51 -4 -55 -13 -8 -18 9 -32
109 -16 117 -21 136 -32 129 -11 -7 -4 -136 22 -381 15 -131 16 -178 8 -201
-8 -21 -8 -47 -1 -93 18 -106 -9 -94 -58 26 -16 38 -16 42 3 79 17 33 19 51
13 115 -3 42 -11 93 -16 113 -10 39 -30 60 -37 40 -10 -32 -20 -3 -26 81 -4
50 -14 139 -22 196 -8 58 -14 106 -14 108 0 2 -5 3 -11 3 -8 0 -10 -33 -4
-120 10 -169 8 -369 -4 -409 -6 -19 -22 -51 -37 -73 -23 -32 -26 -44 -20 -80
5 -28 4 -39 -3 -33 -5 6 -14 161 -21 348 -6 186 -14 346 -18 355 -11 29 -20
-63 -21 -215 -1 -108 -5 -153 -18 -184 -14 -35 -15 -66 -10 -203 5 -141 4
-158 -8 -136 -21 39 -38 156 -31 219 16 137 18 199 7 335 -6 79 -15 155 -20
168 -7 21 -9 19 -16 -19 -3 -24 -4 -76 0 -117 8 -85 1 -116 -25 -116 -21 0
-30 11 -45 54 -5 16 -16 32 -24 34 -12 4 -13 -17 -7 -130 7 -127 6 -135 -13
-152 -25 -22 -27 -69 -10 -195 6 -45 8 -89 5 -98 -6 -15 -8 -15 -24 1 -14 14
-17 35 -17 119 1 184 12 341 30 407 19 69 25 238 11 298 -5 18 -18 39 -29 47
-19 13 -20 21 -14 127 4 62 10 127 15 143 l9 30 6 -26 c4 -14 14 -88 22 -165
17 -139 27 -173 45 -144 13 20 11 70 -8 240 l-17 145 -28 -3 c-15 -2 -35 2
-43 9 -20 17 -33 1 -40 -47 -8 -57 -12 -64 -29 -58 -11 5 -13 15 -9 43 3 20
-6 100 -20 184 -29 167 -44 337 -30 337 30 0 52 -32 59 -87 11 -91 69 -334 80
-336 19 -4 16 53 -14 217 -35 189 -37 222 -15 247 13 15 14 24 5 50 -16 47
-15 49 28 32 47 -18 47 -17 61 -198 11 -135 24 -195 42 -195 8 0 9 28 5 88 -4
48 -10 185 -14 305 l-6 217 39 0 c33 0 44 -6 75 -42 29 -34 40 -40 50 -31 9
10 6 28 -17 90 -16 42 -30 80 -32 84 -2 4 23 13 55 20 70 17 77 34 35 87 -16
20 -37 52 -46 70 -10 19 -24 32 -36 32 -10 0 -35 10 -55 23 -43 25 -125 96
-125 107 0 3 14 5 30 2 25 -4 30 -1 30 16 0 43 -110 106 -122 70 -3 -9 -24 -5
-74 15 -38 15 -75 27 -82 27 -21 0 -13 -32 16 -56 82 -71 87 -76 67 -68 -11 4
-39 14 -63 23 -43 16 -44 16 -63 -8 -25 -31 -25 -85 2 -112 23 -23 109 -62
118 -54 3 4 -4 24 -16 46 -20 36 -20 39 -4 39 10 0 26 -9 36 -20 19 -21 69
-27 80 -10 18 29 23 -3 18 -119 -4 -91 -3 -130 6 -135 19 -12 13 -64 -9 -76
-11 -6 -20 -20 -20 -32 0 -17 -10 -11 -60 36 -33 32 -66 56 -73 54 -6 -2 -18
-19 -26 -36 -25 -55 -34 -40 -46 83 -9 86 -12 93 -57 126 -66 47 -98 37 -98
-32 0 -32 24 -49 43 -30 25 25 30 13 47 -123 6 -49 12 -91 13 -95 1 -3 -2 -8
-7 -11 -5 -3 -16 22 -26 55 -23 82 -49 132 -61 114 -5 -8 -9 -35 -9 -61 0 -26
-5 -59 -11 -75 -10 -27 -10 -27 -34 31 -38 93 -51 97 -75 23 -12 -37 -12 -37
-29 -16 -20 25 -29 17 -55 -51 -30 -76 -56 -90 -56 -29 0 91 -60 -37 -71 -150
0 -3 -11 23 -24 58 -36 98 -56 105 -72 27 -14 -65 -33 -58 -58 19 -6 19 -7 19
-26 -4 -10 -13 -19 -32 -19 -42 0 -25 -13 -24 -25 2 -13 29 -29 26 -33 -6 -4
-31 -18 -32 -49 -4 -18 18 -25 20 -37 10 -21 -17 -32 -8 -55 44 -11 25 -24 45
-29 45 -5 0 -15 -13 -22 -30 -7 -16 -16 -30 -21 -30 -12 0 -29 44 -29 73 0 12
-5 29 -10 37 -9 13 -12 13 -24 -2 -7 -10 -21 -18 -30 -18 -12 0 -16 10 -16 45
0 53 -10 57 -41 13 l-23 -31 -12 53 c-7 30 -21 60 -32 69 -11 9 -25 26 -32 39
-9 20 -14 21 -27 11 -13 -11 -18 -10 -29 6 -8 10 -17 33 -20 52 -3 18 -11 36
-16 39 -5 4 -31 -14 -57 -40 l-46 -46 -18 50 c-10 29 -24 50 -32 50 -20 0 -19
39 2 62 9 11 29 54 44 96 14 42 30 85 34 95 15 35 -15 16 -46 -30 -127 -184
-179 -152 -65 39 30 51 53 94 51 96 -11 11 -39 -13 -101 -90 -70 -87 -118
-175 -109 -200 4 -9 17 -20 31 -26 22 -11 24 -17 24 -81 0 -73 6 -101 21 -101
5 0 14 11 19 25 5 14 14 25 19 25 9 0 13 -14 27 -93 5 -33 23 -62 24 -40 0 4
7 17 16 28 13 17 16 18 24 5 11 -18 13 -120 3 -120 -5 1 -19 7 -33 15 -61 35
-125 8 -218 -89 -55 -58 -92 -82 -92 -58 0 4 36 49 80 100 75 87 95 122 69
122 -6 0 -47 -35 -90 -77 -44 -42 -79 -74 -79 -70 0 3 22 43 50 89 84 139 69
143 -61 16 -127 -125 -191 -201 -287 -339 -88 -127 -115 -177 -155 -284 -18
-46 -48 -95 -87 -143 -51 -63 -75 -112 -54 -112 3 0 44 34 91 76 58 52 88 72
93 64 13 -21 44 -2 84 51 43 58 69 62 74 11 5 -49 27 -51 73 -6 30 30 42 35
51 26 21 -21 46 -13 88 24 22 20 43 34 47 31 3 -3 9 -35 12 -71 8 -77 17 -90
40 -56 37 56 82 97 120 109 25 7 49 23 62 42 19 27 27 30 54 26 37 -6 55 7 55
38 0 29 45 138 59 143 14 5 14 -6 0 -88 -13 -83 -3 -229 17 -237 8 -3 39 13
69 36 30 22 60 41 66 41 7 0 27 5 46 12 29 11 35 10 57 -11 13 -12 26 -39 30
-61 5 -30 13 -43 34 -54 15 -8 37 -25 50 -39 16 -17 30 -23 49 -19 l25 5 -6
-59 c-8 -73 3 -97 33 -70 20 18 21 18 31 -8 5 -15 10 -52 10 -82 l0 -55 -58 7
c-63 7 -132 -7 -152 -31 -20 -24 2 -39 62 -45 57 -5 53 -1 104 -112 26 -60 40
-71 46 -40 3 15 5 15 15 -3 7 -12 8 -35 4 -55 -6 -29 -12 -36 -36 -40 -28 -5
-30 -9 -36 -63 -12 -112 -104 -249 -220 -327 -32 -22 -60 -40 -63 -40 -3 0 -2
16 1 36 9 56 -15 39 -58 -40 -20 -37 -50 -82 -67 -99 -41 -43 -83 -112 -191
-312 -98 -180 -113 -201 -130 -191 -18 12 -13 44 19 106 49 96 39 116 -25 50
-21 -22 -41 -38 -43 -36 -5 6 89 144 170 250 50 65 66 92 58 100 -12 11 -10
13 -148 -139 -54 -60 -62 -66 -57 -41 16 77 17 86 7 86 -16 0 -132 -149 -167
-213 -28 -53 -29 -56 -12 -75 9 -10 17 -24 17 -30 0 -18 -39 -34 -66 -28 -20
5 -32 -2 -62 -35 -33 -35 -46 -42 -93 -47 -90 -11 -64 -44 54 -67 26 -5 27 -8
21 -43 -15 -80 -18 -83 -74 -76 -31 4 -50 3 -50 -3 0 -23 42 -62 102 -93 35
-19 85 -54 112 -79 l49 -46 -6 -82 -6 -83 29 0 c25 0 30 -4 30 -24 0 -30 -6
-35 -63 -42 -43 -6 -46 -5 -62 25 -19 38 -127 120 -167 128 -18 4 -34 16 -43
34 -18 34 -91 79 -128 79 -36 0 -59 -34 -44 -67 14 -32 -2 -43 -63 -43 -58 0
-90 -22 -90 -60 0 -20 -7 -33 -21 -41 -49 -26 -167 22 -138 57 6 8 21 14 34
14 25 0 84 41 134 93 29 31 33 40 27 69 -3 19 -21 59 -39 88 -26 45 -45 62
-107 97 -105 61 -165 77 -285 76 -115 0 -160 -10 -267 -59 -99 -46 -152 -44
-63 2 101 52 323 113 411 114 37 0 63 23 42 37 -29 19 -201 4 -312 -26 -61
-17 -112 -29 -114 -26 -13 13 14 36 64 55 96 35 224 70 261 70 42 0 73 15 73
37 0 14 -17 15 -147 9 -171 -8 -171 0 -2 38 230 51 312 31 544 -134 76 -54
135 -74 135 -46 0 26 -186 156 -320 223 -52 27 -61 28 -190 27 -103 -1 -155
-6 -219 -22 -168 -44 -321 -130 -321 -182 0 -8 -13 -42 -29 -75 -16 -34 -35
-91 -42 -128 -12 -64 -11 -68 9 -90 21 -22 21 -24 5 -39 -10 -9 -63 -28 -118
-43 -124 -33 -302 -102 -418 -163 -89 -47 -198 -134 -185 -148 4 -4 38 9 75
30 243 132 453 216 604 241 48 7 101 21 118 29 16 9 41 16 55 16 21 0 25 -5
28 -32 3 -36 2 -37 56 32 17 21 22 23 36 11 14 -12 19 -11 34 2 26 23 86 36
198 43 l101 7 47 -62 c27 -35 55 -61 65 -61 24 0 68 35 76 60 10 31 -25 78
-77 104 -50 25 -52 36 -8 36 56 0 146 -88 157 -153 4 -28 1 -37 -22 -55 -14
-11 -52 -26 -83 -31 -31 -6 -82 -15 -112 -21 -65 -11 -95 -40 -85 -79 17 -70
102 -104 260 -105 87 -1 105 2 136 22 20 12 47 22 59 22 34 0 107 -46 116 -72
15 -48 58 -99 108 -127 47 -27 98 -70 138 -116 9 -11 28 -28 42 -38 14 -10 58
-73 97 -140 63 -107 86 -137 194 -243 l123 -121 11 -94 c62 -526 89 -608 283
-872 85 -115 146 -343 119 -444 -6 -23 -38 -81 -70 -130 -32 -48 -70 -110 -83
-138 -55 -109 -94 -274 -105 -443 -5 -82 -4 -92 10 -86 9 3 25 20 35 38 26 45
76 66 154 66 82 0 136 -15 171 -48 25 -24 28 -25 44 -9 14 14 15 20 4 39 -28
52 -96 88 -194 103 -47 8 -44 27 6 39 31 8 48 5 100 -16 64 -27 97 -24 97 8 0
21 -96 63 -159 71 -28 3 -51 8 -51 11 0 3 16 19 37 36 36 32 36 32 19 59 -17
25 -17 27 9 61 15 19 25 44 23 56 -3 20 -4 20 -40 -6 -20 -14 -41 -38 -46 -53
-45 -124 -71 -183 -99 -226 l-33 -50 0 73 c0 97 26 172 103 291 105 165 119
198 125 301 5 101 -9 203 -41 290 -11 30 -73 136 -138 235 -66 99 -119 190
-119 202 0 12 9 27 20 33 17 9 23 6 39 -22 73 -125 137 -161 224 -125 50 21
62 41 43 69 -9 12 -16 29 -16 37 0 8 -8 23 -17 33 -12 14 -19 49 -25 141 -9
131 -28 217 -53 237 -28 23 -39 -2 -26 -54 15 -62 14 -130 -4 -173 -41 -98
-57 -74 -48 72 4 86 2 122 -10 166 -20 67 -39 87 -92 91 -36 3 -40 1 -43 -22
-2 -17 9 -42 33 -72 47 -62 55 -87 55 -166 0 -106 -46 -177 -89 -138 -32 29
-25 51 24 83 56 35 55 55 -5 65 -75 13 -81 25 -102 210 -10 90 -24 181 -30
203 -10 41 -51 86 -157 175 -51 43 -53 47 -41 70 11 21 10 26 -10 42 -12 10
-33 18 -46 18 -25 0 -45 21 -26 28 21 7 13 32 -13 42 -14 5 -34 24 -43 41 -9
17 -43 67 -75 112 -37 52 -54 84 -48 90 7 7 41 -1 98 -22 138 -51 150 -53 205
-29 61 26 104 74 163 182 56 102 111 179 192 267 116 125 256 318 294 405 11
24 24 46 29 49 15 9 57 -57 85 -133 37 -103 80 -197 123 -269 30 -51 44 -65
76 -75 45 -15 50 -22 71 -100 21 -75 42 -100 85 -102 34 -1 35 -3 38 -43 3
-40 4 -42 40 -45 36 -3 37 -4 46 -56 9 -48 12 -52 37 -52 47 0 79 -18 90 -50
8 -21 18 -30 32 -30 30 0 44 -11 56 -43 7 -18 26 -35 53 -47 55 -25 67 -25 94
1 l22 21 7 -30 c3 -17 14 -37 25 -47 17 -15 20 -15 42 -1 28 18 34 14 53 -32
15 -35 25 -38 55 -20 29 18 80 -12 130 -76 21 -29 76 -87 122 -129 46 -43 93
-88 106 -99 30 -29 43 -77 27 -103 -17 -28 -71 -63 -119 -77 -38 -12 -201 -15
-356 -8 -85 4 -150 -28 -241 -119 -72 -72 -96 -122 -78 -168 19 -52 12 -72
-36 -94 -124 -58 -202 -178 -235 -359 -10 -58 -28 -142 -40 -188 -27 -104 -21
-153 22 -185 16 -12 36 -34 44 -50 19 -36 53 -35 121 3 29 17 66 30 81 30 55
0 153 82 230 190 123 175 171 215 461 384 194 112 209 119 263 121 54 1 88 16
88 37 0 6 -9 8 -20 5 -50 -13 4 52 114 136 85 66 162 117 282 185 39 23 92 62
117 87 48 49 127 192 127 230 0 28 11 36 66 51 58 14 178 85 249 146 33 28 98
77 145 108 97 66 265 204 304 251 18 21 24 35 17 42 -12 12 -37 -3 -106 -66
-69 -62 -381 -288 -466 -338 -160 -93 -237 -91 -204 5 8 22 23 51 35 65 60 76
65 95 81 353 14 218 7 394 -19 501 -11 42 -17 77 -15 77 2 0 14 -7 27 -15 22
-14 24 -14 31 2 10 26 25 357 19 428 -2 33 -7 83 -10 110 -8 79 12 42 32 -57
19 -99 26 -113 48 -105 23 9 20 53 -14 222 -22 106 -28 151 -20 159 14 14 27
-6 35 -55 4 -21 13 -45 21 -56 12 -16 15 -16 24 -3 6 8 8 31 5 50 -16 97 -17
188 -5 344 l13 172 -26 87 c-17 57 -24 99 -20 122 4 27 0 44 -19 73 -14 20
-28 47 -32 60 -6 19 -4 22 18 22 35 0 34 20 -8 108 -36 74 -34 96 8 68 42 -27
49 12 14 74 -21 36 -22 39 -5 57 24 27 22 38 -18 90 -43 57 -52 100 -30 143
16 31 16 32 -10 66 -14 19 -30 34 -35 34 -21 0 -60 75 -58 112 1 26 -7 47 -24
70 -60 78 -108 207 -108 287 0 58 27 115 57 119 24 4 30 19 35 82 2 27 8 36
25 38 18 3 23 12 29 48 12 79 0 135 -35 166 -17 15 -31 30 -31 33 0 3 62 5
139 5 166 0 171 3 141 79 -11 29 -20 62 -20 75 0 39 37 110 70 135 25 18 31
29 27 48 -6 33 19 58 74 74 25 8 44 20 47 31 2 10 8 18 12 18 23 0 40 35 40
81 l0 49 44 0 c29 0 46 5 49 14 3 8 21 16 39 18 84 8 27 74 -164 192 -126 76
-167 110 -154 123 11 11 126 -52 209 -113 86 -64 181 -117 203 -112 12 2 8 13
-20 49 l-35 47 40 -9 c22 -5 44 -7 50 -4 5 4 9 26 9 51 0 35 -6 51 -26 71 -14
14 -22 28 -19 31 3 4 38 8 78 10 40 2 76 8 81 13 12 11 -12 39 -34 39 -19 0
-46 27 -37 36 3 4 21 1 39 -6 83 -30 86 -30 118 -3 28 23 30 29 24 68 -6 42
-5 43 87 150 101 117 161 162 274 206 39 15 80 37 93 48 20 18 22 26 16 73 -4
29 -11 63 -15 75 -9 26 -163 189 -192 204 -16 9 -18 6 -15 -32 1 -27 -3 -45
-13 -53 -25 -18 -30 -45 -14 -77 9 -16 14 -29 12 -29 -3 0 -30 11 -61 25 -104
46 -196 55 -196 20 0 -8 17 -24 38 -35 l37 -20 -65 5 c-84 8 -130 15 -130 21
0 23 34 75 56 86 41 20 41 36 -3 54 -21 9 -49 24 -63 34 -14 10 -51 20 -85 23
-33 3 -73 8 -90 11 -18 3 -60 -5 -104 -19z m161 -196 c29 -6 54 -13 56 -14 2
-2 -2 -12 -9 -23 -12 -19 -8 -26 34 -71 46 -49 55 -65 39 -75 -13 -8 -145 59
-184 92 -19 18 -45 32 -57 32 -30 0 -63 19 -55 31 10 16 65 38 96 39 15 0 51
-5 80 -11z m424 -71 c55 -58 94 -108 94 -119 0 -19 -48 -8 -87 20 -44 32 -77
91 -68 121 9 28 16 26 61 -22z m198 -47 c17 -19 18 -21 2 -21 -35 0 -76 31
-76 58 0 16 47 -7 74 -37z m-356 0 c51 -38 66 -61 21 -35 -65 39 -79 49 -79
56 0 14 17 8 58 -21z m-404 -1 c14 -5 26 -15 26 -21 0 -13 -143 -5 -164 9 -24
15 101 26 138 12z m189 -107 c39 -17 48 -37 21 -47 -20 -8 -59 2 -109 27 -51
25 -52 26 -35 38 18 12 72 4 123 -18z m-342 -7 c-16 -19 -69 -37 -76 -27 -9
15 32 39 69 40 15 1 16 -2 7 -13z m323 -117 c80 -29 152 -66 144 -74 -2 -3
-42 4 -89 15 -182 42 -231 63 -214 90 10 15 57 6 159 -31z m261 -29 c3 -5 2
-10 -4 -10 -5 0 -13 5 -16 10 -3 6 -2 10 4 10 5 0 13 -4 16 -10z m-561 -35
c27 -8 66 -15 86 -15 42 0 200 -38 215 -51 36 -34 -69 -24 -320 31 -60 13 -80
24 -71 39 9 15 31 14 90 -4z m-124 -33 c0 -46 -47 -74 -94 -56 -26 10 -18 22
32 48 57 30 62 31 62 8z m531 -59 c41 -24 36 -36 -6 -16 -19 9 -35 20 -35 25
0 12 9 10 41 -9z m-313 -39 c32 -9 27 -24 -7 -24 -35 0 -61 9 -61 21 0 10 34
12 68 3z m-238 -305 c70 -36 112 -64 105 -71 -7 -7 -71 6 -136 28 -57 18 -101
60 -79 74 18 12 39 6 110 -31z m-450 -49 c8 -5 12 -12 9 -15 -8 -8 -39 5 -39
16 0 11 11 11 30 -1z m370 -43 c73 -36 88 -57 41 -57 -54 0 -169 60 -156 81
11 16 49 8 115 -24z m-62 -109 c-2 -13 -11 -24 -22 -26 -23 -5 -97 28 -90 39
3 5 30 9 60 9 52 0 55 -2 52 -22z m-232 -113 c-11 -8 -25 -15 -30 -15 -6 0 -2
7 8 15 11 8 25 15 30 15 6 0 2 -7 -8 -15z m-95 -21 c-18 -8 -36 -13 -39 -10
-6 7 37 25 58 25 8 -1 0 -7 -19 -15z m122 -131 c18 -9 27 -18 20 -20 -12 -4
-73 23 -73 32 0 10 21 5 53 -12z m12 -113 c0 -11 -8 -14 -30 -11 -37 4 -47 10
-39 22 9 16 69 6 69 -11z m-542 -205 c32 -77 42 -153 27 -200 -6 -19 -15 -35
-20 -35 -18 0 -75 183 -90 287 -6 45 -4 53 9 51 11 -2 17 6 20 27 3 27 5 25
16 -20 7 -27 24 -77 38 -110z m522 104 c4 -6 5 -13 2 -16 -8 -7 -47 7 -47 18
0 13 37 11 45 -2z m19 -335 c11 -27 7 -37 -9 -24 -16 14 -20 40 -6 40 5 0 12
-7 15 -16z m-255 -185 c-16 -10 -23 -4 -14 10 3 6 11 8 17 5 6 -4 5 -9 -3 -15z
m-2465 -71 c12 -34 1 -65 -18 -49 -15 12 -27 61 -19 74 9 14 28 1 37 -25z
m1636 -21 c0 -26 -15 -12 -25 23 -7 22 -6 23 9 11 9 -7 16 -23 16 -34z m570
-79 c13 -43 -6 -34 -24 12 -21 53 -21 85 1 46 8 -16 19 -42 23 -58z m330 11
c0 -5 -4 -9 -10 -9 -5 0 -10 7 -10 16 0 8 5 12 10 9 6 -3 10 -10 10 -16z
m-435 -122 c10 -37 16 -70 13 -72 -7 -8 -59 134 -64 175 l-5 35 19 -35 c11
-19 27 -65 37 -103z m-2109 37 c-3 -9 -6 -18 -6 -20 0 -2 -9 -4 -20 -4 -25 0
-25 9 -2 26 23 18 35 17 28 -2z m1082 -17 c2 -15 -1 -27 -7 -27 -6 0 -11 3
-11 8 0 4 -3 18 -7 31 -4 18 -2 23 8 19 8 -2 15 -17 17 -31z m77 -38 c10 -30
0 -33 -13 -4 -6 14 -7 25 -2 25 5 0 12 -9 15 -21z m-1814 -139 c-26 -49 -41
-63 -41 -37 0 15 51 86 61 87 4 0 -5 -22 -20 -50z m1988 -170 c35 -214 52
-430 32 -430 -4 0 -18 46 -29 103 -62 301 -74 398 -51 413 7 4 9 25 6 53 -9
91 20 -6 42 -139z m-1705 155 c-4 -8 -10 -15 -15 -15 -4 0 -6 7 -3 15 4 8 10
15 15 15 4 0 6 -7 3 -15z m-105 -37 c-7 -13 -14 -18 -16 -11 -3 7 1 22 8 35 7
13 14 18 16 11 3 -7 -1 -22 -8 -35z m-143 -52 c-26 -34 -86 -84 -86 -71 0 16
36 65 51 70 9 3 24 14 34 25 29 32 30 14 1 -24z m308 17 c-10 -40 -53 -123
-63 -123 -6 0 -5 16 1 38 20 74 78 154 62 85z m-110 -115 c-3 -4 -11 -5 -19
-1 -16 5 -20 44 -8 57 9 8 34 -45 27 -56z m445 31 c-16 -10 -23 -4 -14 10 3 6
11 8 17 5 6 -4 5 -9 -3 -15z m1206 -53 c23 -54 37 -166 30 -235 -4 -35 -10
-59 -15 -55 -11 12 -70 263 -70 297 0 41 37 37 55 -7z m-89 -115 c26 -54 20
-242 -6 -215 -11 11 -70 253 -70 284 l0 24 30 -29 c16 -15 37 -44 46 -64z
m-1961 49 c-5 -8 -11 -8 -17 -2 -6 6 -7 16 -3 22 5 8 11 8 17 2 6 -6 7 -16 3
-22z m1575 -75 c0 -8 -4 -15 -10 -15 -5 0 -10 7 -10 15 0 8 5 15 10 15 6 0 10
-7 10 -15z m296 -85 c5 -26 4 -32 -4 -25 -7 6 -15 26 -18 45 -5 26 -4 32 4 25
7 -6 15 -26 18 -45z m-91 -71 c17 -75 19 -109 5 -109 -5 0 -12 12 -15 28 -3
15 -13 48 -21 75 -17 50 -11 118 7 86 5 -9 15 -45 24 -80z m112 -61 c-3 -7 -5
-2 -5 12 0 14 2 19 5 13 2 -7 2 -19 0 -25z m1438 -164 c19 -29 20 -94 2 -94
-8 0 -21 8 -30 18 -18 21 -87 156 -87 172 0 14 94 -64 115 -96z m-1956 -63
l24 -43 -24 7 c-65 20 -109 65 -76 79 29 12 53 -1 76 -43z m903 -97 c-9 -47
-10 -46 -11 37 0 47 2 89 7 93 11 12 14 -76 4 -130z m-355 94 c-3 -7 -5 -2 -5
12 0 14 2 19 5 13 2 -7 2 -19 0 -25z m-100 -150 c-3 -7 -5 -2 -5 12 0 14 2 19
5 13 2 -7 2 -19 0 -25z m1627 -142 c35 -55 56 -100 56 -118 0 -18 -4 -27 -11
-23 -29 19 -149 233 -149 268 0 21 48 -37 104 -127z m-1724 98 c0 -8 -4 -12
-10 -9 -5 3 -10 10 -10 16 0 5 5 9 10 9 6 0 10 -7 10 -16z m620 -30 c14 -35
-2 -154 -20 -154 -32 0 -55 141 -28 168 19 19 38 14 48 -14z m1066 -197 c43
-77 84 -169 84 -185 -1 -14 -33 35 -71 110 -28 57 -44 77 -61 80 -24 3 -39 40
-52 128 l-6 45 30 -48 c17 -27 51 -85 76 -130z m-1196 71 c-1 -136 -23 -298
-41 -298 -19 0 -6 299 17 373 13 43 24 9 24 -75z m-90 33 c0 -35 -9 -61 -21
-61 -10 0 -12 34 -3 68 9 32 24 27 24 -7z m-820 -59 c0 -29 -45 -132 -77 -176
-66 -92 -83 -119 -83 -132 0 -39 60 11 146 121 47 60 53 65 82 65 21 0 22 -4
22 -69 0 -50 4 -72 16 -82 21 -17 14 -66 -21 -148 l-27 -63 23 -24 c19 -20 21
-30 15 -79 -6 -51 3 -71 19 -45 15 24 25 -6 25 -73 0 -85 7 -117 26 -117 21 0
27 -19 14 -51 -14 -33 -22 -36 -40 -14 -9 11 -17 12 -30 5 -10 -6 -21 -10 -24
-10 -3 0 -6 33 -7 73 0 39 -4 80 -8 90 -6 17 -8 17 -25 -2 -27 -30 -34 -26
-38 22 -3 42 -7 45 -40 32 -15 -6 -17 2 -20 71 -3 84 -21 110 -33 47 -4 -20
-13 -50 -21 -66 -8 -15 -19 -64 -24 -109 -9 -81 -21 -108 -46 -108 -20 0 -17
24 6 70 21 42 27 90 10 90 -6 0 -25 -23 -43 -51 -17 -28 -33 -46 -35 -40 -2 5
6 44 17 86 12 41 21 80 21 85 0 17 -46 11 -63 -8 -13 -15 -60 -147 -106 -302
-9 -30 -74 -67 -79 -44 -3 14 74 217 109 286 11 21 32 52 48 70 28 33 61 111
61 148 0 68 -60 -22 -167 -250 -94 -201 -96 -204 -127 -219 -22 -10 -40 -37
-79 -122 -28 -60 -52 -107 -54 -105 -6 6 76 231 117 321 51 111 108 201 136
214 12 5 31 33 45 68 41 101 108 211 185 301 47 54 90 118 115 170 34 71 59
102 59 74z m117 -34 c-3 -8 -6 -5 -6 6 -1 11 2 17 5 13 3 -3 4 -12 1 -19z
m863 -66 c19 -69 8 -144 -18 -128 -14 9 -26 106 -17 145 8 38 21 32 35 -17z
m-764 -91 c-3 -42 -12 -101 -20 -131 l-14 -55 -1 100 c-1 106 13 180 31 169 7
-5 9 -33 4 -83z m1864 19 c31 -62 29 -77 -7 -37 -25 27 -43 61 -43 81 0 32 21
14 50 -44z m-259 -12 c11 -13 47 -77 80 -143 46 -94 61 -136 69 -195 14 -101
45 -221 80 -302 31 -75 26 -85 -16 -35 -35 42 -63 104 -64 142 0 41 -23 146
-62 284 -22 81 -39 123 -59 145 -15 17 -31 28 -35 23 -4 -4 5 -46 21 -95 25
-75 29 -107 33 -232 4 -150 -8 -226 -29 -187 -6 9 -14 65 -19 125 -5 59 -22
161 -39 227 -41 171 -53 234 -47 251 9 22 62 17 87 -8z m-626 -57 c-3 -12 -11
-21 -16 -21 -10 0 -12 43 -2 54 12 12 25 -11 18 -33z m796 16 c59 -39 81 -108
26 -78 -13 7 -29 11 -36 9 -18 -4 -55 58 -47 77 7 20 17 19 57 -8z m-1214
-119 c-3 -7 -5 -2 -5 12 0 14 2 19 5 13 2 -7 2 -19 0 -25z m396 -127 c8 -81 8
-114 0 -122 -8 -8 -16 -4 -28 15 -23 35 -34 198 -15 221 22 27 32 2 43 -114z
m-897 66 c-4 -24 -13 -53 -21 -63 -13 -18 -14 -16 -15 19 0 37 26 104 37 93 3
-3 2 -25 -1 -49z m-642 11 c7 -12 -7 -43 -61 -134 -39 -66 -105 -187 -147
-270 -42 -83 -90 -169 -107 -190 -41 -50 -126 -223 -146 -296 -10 -37 -22 -58
-31 -58 -37 0 30 234 118 411 98 196 141 267 169 277 21 7 41 37 90 133 35 68
68 130 74 137 12 15 27 12 41 -10z m1864 -55 c2 -18 -3 -35 -12 -43 -9 -7 -16
-27 -16 -46 0 -18 -5 -36 -12 -40 -17 -10 -38 25 -38 63 0 81 71 140 78 66z
m-1149 -60 c1 -17 -3 -34 -8 -38 -13 -8 -25 58 -15 87 7 22 7 22 15 3 4 -11 8
-34 8 -52z m1308 -46 c3 -41 2 -88 -2 -103 l-8 -29 -7 25 c-13 41 -12 206 1
193 6 -6 13 -44 16 -86z m407 0 c3 -12 7 -49 10 -82 3 -33 8 -78 12 -100 4
-22 4 -37 0 -33 -8 7 -65 223 -66 246 0 22 39 -6 44 -31z m-1116 6 c6 -10 13
-33 17 -50 5 -26 3 -33 -9 -33 -20 0 -36 31 -36 69 0 34 14 41 28 14z m-461
-35 c-3 -7 -5 -2 -5 12 0 14 2 19 5 13 2 -7 2 -19 0 -25z m1683 1 c0 -6 -4 -7
-10 -4 -5 3 -10 11 -10 16 0 6 5 7 10 4 6 -3 10 -11 10 -16z m-1944 -60 c-9
-22 -15 -27 -15 -16 -1 21 18 61 25 54 3 -3 -2 -20 -10 -38z m210 -55 c-5 -18
-10 -24 -17 -17 -6 6 -7 22 -3 37 4 18 10 24 17 17 5 -5 6 -22 3 -37z m663 12
c7 -8 11 -23 9 -33 -5 -31 47 -30 68 1 21 33 49 33 96 1 20 -14 41 -25 46 -25
5 0 15 -7 22 -15 10 -12 24 -14 55 -9 38 5 45 3 88 -35 51 -43 113 -63 127
-41 7 11 13 10 34 -3 14 -10 56 -24 92 -33 90 -21 182 -64 222 -104 39 -38
113 -147 165 -241 52 -93 71 -208 23 -134 -9 14 -23 25 -31 25 -25 0 -17 -51
21 -139 44 -102 86 -263 82 -316 -3 -38 -5 -35 -36 56 -35 104 -55 139 -78
139 -8 0 -18 -10 -23 -22 -10 -27 -15 -18 -36 62 -44 176 -72 225 -92 163 -9
-27 -11 -25 -48 46 -40 75 -45 78 -97 57 -18 -8 -16 -10 -78 97 -34 57 -60 74
-60 38 0 -10 20 -63 44 -117 75 -172 72 -192 -10 -53 -70 119 -205 245 -220
205 -14 -36 76 -136 122 -136 17 0 26 -11 40 -45 19 -51 15 -62 -15 -45 -24
12 -41 6 -41 -16 0 -28 84 -106 152 -140 37 -19 77 -47 89 -64 13 -16 31 -32
41 -36 49 -15 196 -282 170 -308 -3 -3 -26 13 -51 37 -38 35 -46 39 -49 24 -7
-34 8 -65 82 -175 64 -93 77 -119 86 -174 6 -35 10 -82 8 -104 l-3 -39 -17 25
c-10 14 -31 64 -48 110 -32 88 -81 179 -113 208 -15 13 -20 14 -27 3 -9 -16
10 -75 70 -211 85 -192 106 -270 74 -270 -25 0 -144 279 -144 337 0 39 -145
228 -176 228 -33 0 -26 -28 29 -115 83 -130 161 -326 173 -430 5 -44 4 -43
-45 50 -27 52 -62 130 -77 174 -29 86 -75 149 -94 130 -9 -9 -5 -33 14 -96 29
-95 30 -98 16 -98 -16 0 -57 91 -84 189 -14 51 -29 98 -34 104 -5 7 -12 26
-16 42 -28 122 -39 130 -51 38 l-8 -58 -13 64 c-15 73 -29 94 -39 61 -10 -32
2 -130 41 -333 37 -196 38 -201 25 -192 -5 3 -15 31 -22 63 -6 31 -32 106 -56
167 -25 60 -57 150 -72 199 -19 65 -31 92 -44 94 -23 5 -22 -32 3 -128 11 -41
20 -85 20 -97 0 -45 -50 -16 -64 37 -3 14 -13 107 -21 208 -8 101 -18 188 -21
194 -13 21 -25 -33 -31 -144 -3 -59 -10 -108 -15 -108 -4 0 -8 5 -8 10 0 18
-20 203 -26 238 -2 17 -8 32 -13 32 -4 0 -16 -27 -26 -60 -10 -33 -21 -60 -26
-60 -7 0 -29 109 -29 143 0 23 -9 21 -37 -5 -34 -32 -41 -14 -35 98 5 97 -3
117 -30 74 -7 -11 -16 -20 -19 -20 -4 0 -8 45 -11 100 -4 109 -18 143 -37 89
-6 -17 -11 -54 -11 -80 0 -56 -37 -140 -51 -117 -5 7 -9 36 -9 65 0 61 -18
196 -30 226 -7 20 -10 18 -27 -22 l-19 -44 -15 34 c-10 24 -14 69 -13 151 1
106 4 122 28 173 28 57 115 143 178 178 39 21 101 22 117 3z m1219 -89 c3 -88
-10 -118 -22 -49 -11 67 -7 144 7 140 8 -3 13 -33 15 -91z m-112 37 c18 -43 6
-66 -24 -48 -26 17 -40 63 -22 74 24 15 30 12 46 -26z m-1913 -45 c-5 -36 -4
-40 13 -37 17 3 19 -4 19 -69 0 -86 -18 -99 -25 -18 -3 30 -9 56 -15 58 -16 3
-36 -72 -39 -150 -3 -79 -7 -91 -25 -69 -9 11 -9 25 -2 53 6 21 14 75 20 120
6 54 16 94 31 117 12 20 23 36 25 36 2 0 1 -18 -2 -41z m247 12 c0 -13 -29
-35 -37 -28 -7 8 15 37 28 37 5 0 9 -4 9 -9z m-825 -133 c-2 -13 -12 -54 -20
-93 -20 -89 -35 -135 -44 -135 -13 0 6 118 30 185 22 62 45 91 34 43z m-636
-184 c-36 -92 -44 -104 -35 -50 8 40 54 141 61 134 3 -2 -9 -40 -26 -84z
m1351 34 c0 -32 -22 -89 -33 -85 -15 5 -13 63 3 82 15 18 30 19 30 3z m-1496
-55 c-10 -24 -18 -33 -22 -24 -2 8 4 30 14 49 24 44 30 26 8 -25z m646 -44 c0
-24 -4 -38 -10 -34 -17 10 -11 75 7 75 2 0 3 -18 3 -41z m-80 -66 c0 -5 -4
-15 -10 -23 -11 -18 -25 -7 -17 15 6 15 27 21 27 8z m72 -35 c-15 -15 -26 -4
-18 18 5 13 9 15 18 6 9 -9 9 -15 0 -24z m-1878 3 c10 -15 -23 -33 -71 -39
-35 -4 -44 -2 -38 8 16 26 98 50 109 31z m1602 -75 c-9 -30 -20 -57 -25 -60
-5 -3 -2 18 6 47 21 76 23 80 29 74 3 -3 -1 -30 -10 -61z m181 2 c-3 -7 -5 -2
-5 12 0 14 2 19 5 13 2 -7 2 -19 0 -25z m2367 -30 c18 -25 21 -68 6 -68 -10 0
-19 17 -34 68 -9 29 8 29 28 0z m-2460 -95 c-7 -54 -31 -119 -40 -110 -11 11
27 157 41 157 4 0 3 -21 -1 -47z m-614 -119 c14 -7 41 -29 60 -49 l35 -38 -29
7 c-42 10 -176 75 -176 86 0 21 63 18 110 -6z m2180 -40 c0 -8 -4 -14 -10 -14
-5 0 -10 9 -10 21 0 11 5 17 10 14 6 -3 10 -13 10 -21z m-2155 -130 c14 -9 23
-19 21 -22 -7 -6 -96 51 -96 62 0 4 11 1 25 -8 14 -9 36 -23 50 -32z m3030
-742 c32 -49 48 -103 35 -116 -19 -19 -44 9 -62 65 -30 96 -18 119 27 51z
m-91 -38 c11 -29 6 -34 -29 -34 -38 0 -45 15 -17 36 23 18 39 17 46 -2z m-106
-160 c13 -9 32 -14 43 -11 34 9 18 -18 -66 -112 -82 -91 -101 -106 -92 -71 7
26 -12 26 -65 -1 -31 -16 -46 -19 -59 -11 -12 8 -24 6 -48 -9 -49 -30 -171
-156 -186 -193 -20 -48 -89 -105 -186 -154 -123 -61 -150 -88 -216 -210 -72
-134 -113 -175 -113 -112 0 59 66 162 189 296 57 62 111 142 111 164 0 7 16
30 36 52 41 46 35 71 -13 49 -15 -7 -29 -9 -30 -4 -12 32 -20 35 -57 18 -41
-19 -99 -81 -93 -98 2 -7 15 -11 29 -9 34 4 42 -21 22 -64 -9 -19 -57 -80
-106 -136 -118 -133 -131 -154 -167 -275 -31 -101 -60 -143 -97 -143 -20 0
-17 22 16 121 44 132 81 197 158 280 82 88 100 117 78 125 -10 4 -50 -26 -116
-88 -55 -51 -105 -94 -110 -96 -12 -5 8 64 35 118 26 50 50 75 113 114 48 30
58 66 18 66 -45 0 -188 -132 -223 -205 -39 -81 -33 -9 8 100 29 78 49 97 174
161 67 35 103 49 93 37 -22 -25 -24 -63 -2 -63 19 0 164 92 190 121 19 21 19
22 -3 36 -13 9 -23 19 -23 23 0 5 28 24 63 43 49 27 77 36 134 40 41 3 112 19
164 37 103 36 285 78 339 79 20 1 46 -6 58 -15z m-713 -31 c-9 -49 -12 -53
-38 -53 -12 0 -42 -9 -66 -20 -56 -26 -61 -25 -61 6 0 17 14 40 39 65 34 34
44 39 86 39 l47 0 -7 -37z m-1250 -364 c4 -5 4 -17 1 -25 -4 -11 -10 -12 -25
-5 -18 10 -34 45 -24 55 7 6 40 -10 48 -25z m743 -511 c-25 -49 -33 -58 -36
-41 -3 20 27 91 52 122 9 12 11 12 14 -2 2 -8 -12 -44 -30 -79z"/>
<path d="M5382 3974 c-29 -20 -28 -44 1 -44 28 0 67 26 67 46 0 19 -40 18 -68
-2z"/>
<path d="M5706 3604 c-32 -31 -13 -168 30 -215 17 -18 54 -27 54 -11 0 4 -12
40 -26 80 -15 40 -24 75 -20 79 3 4 25 -12 49 -34 48 -46 83 -67 91 -54 14 22
-115 171 -148 171 -8 0 -22 -7 -30 -16z"/>
<path d="M5619 3473 c-3 -39 4 -61 44 -135 47 -89 86 -132 110 -122 25 9 20
37 -14 80 -17 22 -45 66 -61 99 -32 63 -55 95 -70 95 -4 0 -9 -8 -9 -17z"/>
<path d="M5482 1709 c-40 -30 -102 -106 -116 -143 -8 -23 10 -47 30 -39 14 5
154 193 154 207 0 14 -29 4 -68 -25z"/>
<path d="M1138 8464 c-31 -16 -36 -45 -13 -64 10 -9 19 -9 28 -2 6 5 27 13 44
17 43 9 51 24 23 47 -27 22 -46 22 -82 2z"/>
<path d="M1215 8338 c-38 -21 -65 -52 -65 -75 0 -28 8 -29 64 -2 60 28 83 54
66 74 -15 18 -37 19 -65 3z"/>
<path d="M4800 8265 c-13 -34 -13 -85 0 -85 25 0 42 91 20 105 -6 3 -15 -6
-20 -20z"/>
<path d="M4912 8273 c-16 -29 -18 -86 -5 -90 24 -8 46 88 24 102 -6 3 -14 -2
-19 -12z"/>
<path d="M4665 8255 c-3 -8 -7 -22 -10 -30 -8 -25 6 -45 30 -45 31 0 42 33 21
65 -19 28 -34 32 -41 10z"/>
<path d="M5026 8236 c-18 -38 -21 -86 -6 -86 29 0 60 108 34 117 -6 2 -19 -12
-28 -31z"/>
<path d="M4537 8234 c-10 -10 -9 -82 1 -88 19 -11 33 13 30 49 -3 37 -16 53
-31 39z"/>
<path d="M4434 8206 c-9 -37 -1 -70 18 -74 22 -4 33 35 19 71 -13 33 -29 35
-37 3z"/>
<path d="M5140 8178 c-25 -56 -25 -78 0 -78 25 0 40 29 40 79 0 53 -16 52 -40
-1z"/>
<path d="M4193 8150 c6 -47 31 -90 52 -90 21 0 19 36 -6 87 -28 57 -54 59 -46
3z"/>
<path d="M4320 8162 c0 -29 31 -68 43 -55 13 13 7 50 -11 66 -26 24 -32 21
-32 -11z"/>
<path d="M5236 8150 c-25 -30 -36 -80 -17 -80 12 0 48 46 57 72 11 36 -12 41
-40 8z"/>
<path d="M4087 8153 c-12 -12 -7 -61 7 -66 29 -11 48 37 24 61 -14 14 -22 15
-31 5z"/>
<path d="M3980 8102 c0 -46 20 -78 44 -69 22 9 20 43 -5 78 -28 39 -39 36 -39
-9z"/>
<path d="M5326 8108 c-20 -28 -21 -58 -2 -58 16 0 46 42 46 65 0 22 -27 18
-44 -7z"/>
<path d="M1304 8065 c-20 -31 -12 -75 15 -75 23 0 66 64 57 85 -9 24 -54 18
-72 -10z"/>
<path d="M3890 8060 c0 -33 42 -86 60 -75 17 10 11 51 -11 79 -28 36 -49 34
-49 -4z"/>
<path d="M5413 8039 c-35 -22 -44 -56 -17 -66 19 -7 74 44 74 69 0 23 -17 23
-57 -3z"/>
<path d="M3826 7994 c-11 -28 -6 -44 18 -69 50 -50 76 -1 30 54 -29 35 -39 38
-48 15z"/>
<path d="M5510 7993 c-24 -9 -50 -35 -50 -50 0 -19 30 -16 68 7 50 31 37 63
-18 43z"/>
<path d="M6290 7978 c-50 -26 -91 -79 -115 -150 -26 -74 -15 -92 19 -33 16 28
38 65 49 83 10 18 44 48 74 68 29 19 51 39 48 44 -9 15 -26 12 -75 -12z"/>
<path d="M3760 7922 c0 -34 30 -65 57 -60 23 5 19 35 -10 66 -28 30 -47 28
-47 -6z"/>
<path d="M5551 7904 c-37 -31 -39 -44 -8 -44 31 0 67 27 67 51 0 26 -23 24
-59 -7z"/>
<path d="M6321 7874 c-18 -14 -37 -36 -43 -47 -12 -23 -28 -87 -22 -87 2 0 34
31 72 69 50 50 67 72 59 80 -17 17 -33 13 -66 -15z"/>
<path d="M3680 7852 c0 -23 19 -42 41 -42 28 0 32 17 9 40 -25 25 -50 26 -50
2z"/>
<path d="M5615 7839 c-26 -13 -48 -46 -39 -61 10 -16 121 -5 140 14 15 14 14
18 -5 37 -22 22 -62 26 -96 10z"/>
<path d="M6384 7806 c-36 -35 -44 -50 -44 -79 0 -47 13 -53 61 -28 50 27 66
26 89 -1 18 -22 20 -22 62 -8 23 8 42 20 41 25 -1 6 -22 15 -47 22 -57 14 -66
20 -66 43 0 11 11 22 30 29 17 5 30 17 30 25 0 13 -12 16 -56 16 -53 0 -59 -2
-100 -44z"/>
<path d="M3627 7763 c-22 -21 11 -73 46 -73 23 0 21 22 -4 54 -21 27 -31 31
-42 19z"/>
<path d="M5723 7749 c-49 -19 -113 -69 -113 -89 0 -12 82 -18 103 -8 40 20
127 92 124 102 -6 19 -60 16 -114 -5z"/>
<path d="M1427 7671 c-9 -16 -17 -39 -17 -51 0 -33 32 -21 52 19 29 57 -3 87
-35 32z"/>
<path d="M3600 7666 c0 -7 10 -26 21 -40 20 -25 23 -26 37 -12 14 14 14 18 -8
41 -26 27 -50 33 -50 11z"/>
<path d="M5726 7609 c-30 -24 -34 -49 -8 -49 23 0 66 45 57 59 -9 16 -19 14
-49 -10z"/>
<path d="M1516 7576 c-30 -33 -48 -100 -36 -132 5 -13 13 -24 18 -24 16 0 32
25 32 51 0 14 9 38 21 53 21 27 23 67 2 73 -7 3 -23 -7 -37 -21z"/>
<path d="M3553 7578 c5 -16 -1 -30 -18 -48 -23 -24 -24 -31 -17 -85 l7 -60 37
-3 c28 -2 40 2 52 19 18 27 13 39 -19 39 -33 0 -41 18 -13 29 39 15 49 33 38
70 -12 43 -28 61 -52 61 -16 0 -19 -5 -15 -22z"/>
<path d="M5413 7555 c-29 -20 -83 -104 -83 -128 0 -11 -9 -35 -21 -54 -22 -36
-20 -63 6 -63 21 0 20 -1 -25 -92 -41 -83 -49 -118 -28 -118 6 0 20 7 29 16
16 14 23 15 48 4 48 -19 54 -33 35 -74 -17 -34 -17 -37 0 -55 18 -19 17 -21
-3 -47 -14 -18 -21 -41 -21 -70 0 -33 -5 -47 -25 -62 -14 -11 -25 -25 -25 -31
0 -18 60 -50 106 -57 63 -9 72 2 33 42 -18 19 -30 37 -26 41 4 3 30 1 58 -5
60 -14 99 -15 119 -2 11 7 3 21 -43 69 -31 33 -57 62 -57 64 0 2 7 23 14 45
17 48 10 56 -33 41 -18 -6 -34 -10 -36 -7 -2 2 18 28 45 58 55 61 60 75 29 83
-19 5 -20 7 -4 36 8 17 29 38 45 46 36 18 37 31 9 54 -19 15 -20 20 -9 38 16
24 7 51 -17 59 -10 3 -36 14 -58 25 -22 10 -57 19 -78 19 l-37 0 45 58 c57 72
61 104 8 67z"/>
<path d="M5770 7521 c-16 -16 -32 -41 -36 -56 -5 -22 -2 -31 22 -51 16 -13 43
-29 60 -35 19 -7 35 -23 42 -41 10 -29 12 -29 79 -26 62 3 68 5 71 26 2 13 -3
25 -12 28 -9 4 -16 18 -16 34 0 28 -41 68 -127 127 -43 29 -49 29 -83 -6z m63
-58 c30 -16 31 -18 9 -21 -23 -4 -52 13 -52 29 0 13 7 11 43 -8z m105 -75 c-5
-16 -48 -24 -48 -10 0 11 17 20 38 21 8 1 12 -5 10 -11z"/>
<path d="M3520 7311 c0 -36 25 -59 48 -45 25 16 25 30 1 53 -32 29 -49 27 -49
-8z"/>
<path d="M4686 7315 c-16 -8 -56 -22 -90 -30 -33 -9 -78 -22 -99 -30 -49 -20
-137 -19 -209 1 -53 15 -60 15 -76 1 -9 -8 -43 -25 -76 -37 -68 -26 -156 -104
-156 -139 0 -15 -5 -21 -17 -19 -14 2 -19 -5 -21 -35 -4 -45 34 -133 78 -183
16 -19 30 -44 30 -56 0 -12 7 -30 17 -40 15 -17 15 -23 -2 -91 -16 -68 -17
-76 -1 -135 19 -77 75 -164 130 -204 74 -55 196 -108 245 -108 89 0 239 56
294 108 35 33 63 85 72 135 8 43 4 45 -34 17 -15 -12 -55 -25 -92 -30 -47 -7
-69 -15 -82 -31 -17 -22 -19 -22 -53 -6 -19 10 -47 17 -61 17 -58 0 -4 20 92
34 133 20 197 40 229 73 37 37 20 49 -42 29 -27 -9 -78 -21 -113 -27 -86 -14
-351 -37 -364 -32 -10 4 -45 82 -70 158 -8 22 -17 79 -20 127 l-7 88 -51 6
c-54 7 -107 46 -107 78 0 27 19 27 62 -1 55 -36 127 -38 183 -5 20 13 39 21
42 19 2 -2 -7 -26 -21 -53 -30 -62 -58 -186 -50 -222 9 -35 42 -102 62 -124
62 -71 213 74 227 218 4 32 -1 66 -12 98 -28 77 -40 69 -45 -33 -6 -99 -32
-161 -69 -161 -28 0 -95 36 -103 55 -9 24 11 99 43 164 16 32 34 86 41 122 14
80 27 116 47 124 24 9 26 0 9 -33 -24 -46 -32 -164 -14 -180 13 -10 26 -3 77
43 34 30 67 55 74 55 7 0 19 -15 27 -32 20 -42 89 -77 152 -78 39 0 54 6 84
32 20 18 45 52 55 76 11 25 28 46 38 49 31 8 33 33 6 73 -35 50 -72 76 -125
84 -58 9 -77 24 -53 42 38 27 -35 54 -81 29z m24 -45 c0 -5 -13 -16 -30 -25
-38 -19 -40 -6 -2 17 32 21 32 21 32 8z m-100 -49 c0 -8 -60 -41 -74 -41 -3 0
-6 6 -6 14 0 8 17 18 38 24 20 5 38 10 40 11 1 1 2 -3 2 -8z m-394 -122 c3 -6
1 -16 -5 -22 -12 -12 -61 6 -61 23 0 13 57 13 66 -1z m534 1 c8 -5 12 -12 9
-15 -8 -8 -39 5 -39 16 0 11 11 11 30 -1z m-720 -61 c0 -16 -4 -29 -10 -29 -5
0 -10 16 -10 36 0 21 4 33 10 29 6 -3 10 -19 10 -36z m132 -466 c39 -38 49
-63 25 -63 -17 0 -39 25 -61 68 -22 42 -11 41 36 -5z"/>
<path d="M5831 7267 c-15 -19 -3 -49 18 -45 9 2 16 13 16 27 0 29 -17 37 -34
18z"/>
<path d="M3510 7215 c-19 -22 -4 -45 28 -45 33 0 57 22 48 45 -7 19 -60 20
-76 0z"/>
<path d="M1717 7134 c-13 -13 -7 -61 8 -74 12 -10 16 -9 21 3 14 37 -8 91 -29
71z"/>
<path d="M3527 7123 c-14 -13 -7 -43 12 -53 26 -14 88 -13 97 2 18 28 -84 76
-109 51z"/>
<path d="M5000 7024 c-6 -14 -10 -36 -10 -49 0 -34 -59 -89 -116 -109 -55 -18
-95 -20 -144 -6 -45 13 -70 4 -70 -23 0 -33 19 -56 115 -137 96 -82 128 -89
99 -23 -9 21 -18 43 -21 50 -2 6 15 24 39 41 49 34 110 117 133 182 24 68 0
140 -25 74z"/>
<path d="M3719 6858 c-46 -36 -67 -63 -56 -74 12 -12 137 77 137 98 0 18 -41
6 -81 -24z"/>
<path d="M5874 6866 c-11 -28 66 -250 89 -254 13 -3 17 3 17 27 0 46 -47 182
-74 216 -22 27 -25 28 -32 11z"/>
<path d="M4606 6725 c-4 -21 -25 -56 -52 -86 -24 -28 -42 -54 -39 -60 8 -13
72 -11 97 2 12 6 35 12 52 13 22 1 34 9 43 26 13 27 9 36 -44 108 -31 42 -49
41 -57 -3z"/>
<path d="M5758 6672 c-2 -21 -8 -27 -28 -27 -46 0 -41 -30 16 -94 63 -70 110
-66 129 11 6 22 0 34 -36 73 -60 65 -77 73 -81 37z"/>
<path d="M2740 6519 c0 -39 43 -134 89 -196 44 -60 111 -91 111 -51 0 5 -22
38 -48 72 -27 33 -65 89 -85 122 -20 34 -44 67 -52 74 -13 11 -15 8 -15 -21z"/>
<path d="M5704 6507 c-7 -18 12 -65 42 -104 31 -41 71 -45 80 -8 9 36 -3 75
-24 75 -9 0 -34 11 -55 25 -29 20 -38 23 -43 12z"/>
<path d="M5176 6463 c-23 -24 14 -71 76 -98 68 -28 76 -19 28 31 -47 48 -93
78 -104 67z"/>
<path d="M3848 6435 c-6 -14 -8 -28 -5 -31 10 -11 37 17 37 37 0 27 -18 23
-32 -6z"/>
<path d="M2720 6308 c0 -60 84 -168 131 -168 11 0 19 3 19 8 -1 13 -125 185
-138 190 -8 2 -12 -8 -12 -30z"/>
<path d="M2640 6158 c0 -7 12 -40 25 -73 30 -72 31 -87 7 -108 -23 -21 -32
-21 -48 1 -20 28 -35 2 -36 -64 -1 -85 8 -107 40 -101 15 2 36 8 47 12 11 5
-10 -24 -47 -64 -43 -46 -72 -87 -78 -111 -5 -20 -24 -56 -41 -79 -17 -24 -39
-62 -49 -85 -10 -25 -35 -55 -63 -76 -55 -42 -73 -68 -58 -83 7 -7 33 4 87 37
42 26 78 45 81 42 3 -2 -15 -21 -39 -42 -91 -79 -198 -195 -198 -214 0 -29 10
-25 70 26 32 27 61 44 74 43 34 -4 61 9 84 41 25 34 53 41 45 11 -11 -41 20
-28 92 40 74 71 88 77 60 29 -19 -33 -19 -60 0 -60 23 0 153 159 186 229 17
35 46 80 63 100 18 20 52 65 76 101 24 36 84 118 132 183 99 133 123 173 108
182 -16 10 -104 -90 -235 -265 -104 -139 -131 -169 -169 -188 -72 -35 -74 -38
138 232 32 41 56 80 54 87 -2 6 -32 -12 -69 -44 -36 -30 -81 -62 -100 -70 -19
-8 -60 -38 -92 -66 -32 -28 -63 -49 -68 -46 -18 12 -8 37 31 84 41 49 48 69
29 88 -8 8 -1 19 25 39 56 45 45 79 -17 55 -22 -9 -25 -6 -36 28 -6 21 -29 65
-51 99 -37 59 -60 77 -60 50z m-20 -593 c0 -2 -10 -10 -22 -16 -21 -11 -22
-11 -9 4 13 16 31 23 31 12z m50 -121 c0 -10 -47 -62 -80 -90 -49 -42 -38 0
14 52 39 39 66 55 66 38z"/>
<path d="M5713 5873 c11 -119 109 -479 152 -564 21 -40 39 -38 29 4 -3 17 -27
97 -51 177 -35 114 -113 422 -113 446 0 2 -5 4 -11 4 -9 0 -10 -20 -6 -67z"/>
<path d="M5844 5886 c-9 -22 26 -159 63 -250 26 -65 54 -99 68 -84 8 7 -101
328 -115 342 -6 6 -12 2 -16 -8z"/>
<path d="M5615 5833 c-14 -32 -18 -256 -6 -333 15 -96 160 -542 175 -537 28
10 0 141 -62 298 -50 125 -62 188 -73 386 -9 181 -18 225 -34 186z"/>
<path d="M5556 5313 c4 -21 21 -87 38 -148 23 -81 36 -111 49 -113 13 -3 17 3
17 25 -1 80 -69 273 -97 273 -11 0 -12 -9 -7 -37z"/>
<path d="M5826 5243 c8 -36 83 -320 93 -352 4 -14 13 -27 21 -29 30 -10 -27
262 -75 359 -28 54 -49 66 -39 22z"/>
<path d="M6160 5221 c0 -21 50 -154 67 -179 l18 -27 3 27 c3 28 -64 188 -79
188 -5 0 -9 -4 -9 -9z"/>
<path d="M4021 5038 c-99 -123 -183 -200 -283 -259 -76 -45 -88 -58 -64 -71
24 -14 20 -26 -30 -87 -26 -31 -53 -72 -61 -91 -9 -19 -30 -55 -48 -80 -19
-25 -37 -59 -41 -75 -4 -17 -34 -82 -67 -146 -47 -90 -61 -129 -65 -173 -4
-54 -4 -56 21 -56 19 0 38 17 80 68 69 84 107 141 107 158 0 25 -38 14 -64
-18 -14 -18 -28 -30 -31 -27 -8 9 74 115 134 174 56 54 62 72 29 84 -20 7 -20
9 15 47 20 22 52 68 71 102 42 75 104 154 254 320 61 69 112 129 112 134 0 13
-58 9 -69 -4z"/>
<path d="M4238 4712 c-9 -9 -23 -32 -33 -51 -9 -18 -32 -55 -51 -81 -36 -50
-40 -60 -24 -60 33 0 140 138 140 182 0 25 -15 30 -32 10z"/>
<path d="M3816 4600 c-35 -39 -45 -60 -27 -60 9 0 91 85 91 95 0 17 -33 -1
-64 -35z"/>
<path d="M3760 4404 c-48 -44 -131 -146 -154 -191 -17 -35 -21 -73 -7 -73 9 0
190 239 210 278 18 33 -3 28 -49 -14z"/>
<path d="M2607 3766 c4 -7 28 -29 53 -48 25 -19 46 -43 48 -55 2 -12 30 -46
63 -77 32 -31 59 -60 59 -65 0 -6 -8 -14 -17 -20 -16 -9 -15 -12 11 -40 17
-17 35 -31 40 -31 23 0 86 21 86 29 0 4 -24 34 -53 67 -82 92 -82 92 -51 86
24 -4 25 -3 15 16 -17 32 -90 90 -155 122 -64 32 -113 40 -99 16z"/>
<path d="M2900 3400 c-12 -8 -12 -10 3 -16 21 -8 35 2 21 16 -5 5 -15 6 -24 0z"/>
<path d="M2333 3210 c-23 -9 -29 -21 -17 -33 7 -7 60 18 69 33 8 12 -22 12
-52 0z"/>
<path d="M1713 3204 c-19 -8 -16 -28 10 -51 27 -25 83 -54 100 -52 68 9 43
-18 -72 -76 -128 -64 -261 -151 -261 -171 0 -34 79 -8 176 57 109 73 277 136
329 123 42 -11 255 60 255 85 0 20 -17 19 -105 -5 -50 -13 -118 -25 -152 -26
-66 -1 -70 1 -178 81 -41 31 -80 44 -102 35z"/>
<path d="M1585 3021 c-167 -90 -242 -151 -189 -151 24 0 282 140 288 157 7 18
-1 33 -17 33 -7 0 -44 -17 -82 -39z"/>
<path d="M3766 2928 c-31 -62 -32 -68 -6 -101 11 -14 23 -41 27 -60 6 -25 19
-43 42 -59 19 -13 55 -52 79 -88 41 -60 48 -65 82 -66 53 -2 79 -20 99 -67 11
-26 41 -61 75 -91 81 -69 101 -116 122 -286 10 -84 51 -217 90 -290 49 -93
104 -149 104 -104 0 8 -22 69 -50 136 -48 115 -60 160 -95 364 -21 118 -43
154 -204 342 -72 84 -147 179 -167 210 -20 30 -54 73 -75 94 -21 21 -39 47
-39 56 0 23 -28 62 -45 62 -7 0 -25 -23 -39 -52z"/>
<path d="M7485 2420 c-22 -33 -68 -88 -103 -123 -60 -59 -64 -61 -78 -43 -20
28 -18 44 11 78 26 30 42 74 31 85 -16 16 -366 -260 -366 -289 0 -13 44 -8 64
7 32 25 46 18 46 -20 0 -39 -21 -99 -40 -110 -6 -4 -17 1 -25 11 -13 18 -14
18 -39 -5 -14 -13 -37 -41 -52 -62 -19 -27 -38 -42 -64 -49 -21 -6 -61 -31
-90 -56 l-51 -47 -24 23 -23 22 -15 -24 c-8 -12 -17 -35 -21 -50 -6 -27 -127
-124 -246 -198 -30 -19 -110 -76 -178 -127 -67 -51 -127 -93 -132 -93 -22 0
-7 22 47 66 71 57 86 78 80 110 -8 41 13 58 66 52 53 -6 84 9 74 36 -7 18 -30
21 -58 5 -15 -7 -24 -7 -34 1 -19 16 -89 -51 -81 -78 5 -13 -16 -43 -80 -113
-47 -52 -93 -97 -102 -101 -9 -4 -38 -7 -64 -7 -27 -1 -48 -6 -48 -12 0 -25
24 -52 62 -69 l41 -18 -44 -28 c-85 -54 -266 -144 -388 -193 -70 -29 -156 -73
-197 -101 -40 -27 -75 -50 -78 -50 -4 0 8 26 25 58 26 49 28 57 14 60 -62 13
-216 -283 -218 -418 0 -30 3 -114 8 -187 l8 -132 -27 -7 c-24 -6 -56 -38 -56
-56 0 -4 8 -12 18 -17 24 -13 96 19 114 51 9 16 15 82 18 218 6 238 11 253
139 380 72 71 97 89 151 109 335 123 420 170 593 325 217 194 266 229 702 516
332 217 383 257 581 455 145 143 194 208 194 255 0 36 -24 21 -65 -40z m-265
-221 c0 -46 -14 -79 -35 -79 -16 0 -75 48 -75 60 0 11 80 60 98 60 7 0 12 -15
12 -41z"/>
<path d="M3817 2403 c-36 -35 51 -175 97 -157 22 8 20 27 -6 67 -13 19 -31 49
-40 66 -16 29 -37 39 -51 24z"/>
<path d="M6993 2286 c-98 -72 -120 -92 -110 -102 18 -18 165 80 212 142 42 55
9 42 -102 -40z"/>
<path d="M6305 1891 c-6 -11 9 -23 19 -14 9 9 7 23 -3 23 -6 0 -12 -4 -16 -9z"/>
<path d="M4550 1651 c0 -34 48 -62 99 -59 38 3 46 6 46 23 0 15 -12 24 -50 37
-69 23 -95 23 -95 -1z"/>
<path d="M6055 1491 c-3 -5 -1 -12 4 -15 12 -8 41 3 41 15 0 12 -37 12 -45 0z"/>
<path d="M4623 1475 c-3 -9 -3 -18 0 -21 9 -9 27 6 27 22 0 19 -19 18 -27 -1z"/>
<path d="M4068 1439 c-27 -15 -22 -56 7 -75 59 -39 160 27 113 74 -15 15 -96
15 -120 1z"/>
<path d="M4133 1274 c-3 -8 1 -23 10 -32 15 -14 17 -14 23 1 8 21 -1 47 -16
47 -6 0 -13 -7 -17 -16z"/>
<path d="M5763 1275 c-3 -9 -3 -18 0 -21 9 -9 27 6 27 22 0 19 -19 18 -27 -1z"/>
<path d="M5600 1171 c0 -6 5 -13 10 -16 6 -3 10 1 10 9 0 9 -4 16 -10 16 -5 0
-10 -4 -10 -9z"/>
<path d="M5024 818 c-4 -6 -12 -34 -18 -62 l-12 -51 -39 2 c-65 4 -77 -24 -31
-75 28 -31 10 -42 -72 -42 -45 0 -64 -4 -68 -14 -10 -26 13 -51 58 -61 33 -9
44 -16 46 -34 8 -56 -62 -79 -125 -40 -27 17 -36 19 -48 9 -23 -19 -18 -39 19
-76 26 -26 42 -34 70 -34 20 0 45 -5 55 -12 15 -9 24 -8 45 5 36 24 56 68 60
135 3 36 14 78 28 108 14 27 31 65 38 84 7 19 26 49 41 65 l29 31 -23 32 c-25
36 -43 46 -53 30z"/>
<path d="M4375 420 c-10 -16 -7 -162 4 -173 18 -18 32 33 29 105 -3 67 -16 95
-33 68z"/>
<path d="M4897 228 c-28 -45 -47 -61 -108 -93 -101 -52 -129 -73 -129 -95 0
-22 28 -40 60 -40 37 0 96 38 149 96 60 65 80 100 83 145 5 50 -18 45 -55 -13z"/>
</g>
</svg>
