<svg width="2000" height="2000" viewBox="0 0 2000 2000" fill="none" xmlns="http://www.w3.org/2000/svg">
<path d="M1597.69 1665.95L1800 853.67L1166.85 323.19L297.96 620.04L200 1270.06L562.33 1665.95H1597.69Z" fill="#E9F9D7"/>
<path d="M1379.41 434.2H1064.75C1057.74 434.2 1052.06 439.882 1052.06 446.89V447.47C1052.06 454.478 1057.74 460.16 1064.75 460.16H1379.41C1386.42 460.16 1392.1 454.478 1392.1 447.47V446.89C1392.1 439.882 1386.42 434.2 1379.41 434.2Z" fill="black" stroke="black" stroke-width="5" stroke-miterlimit="10"/>
<path d="M678.84 1598.08H448.25C441.242 1598.08 435.56 1603.76 435.56 1610.77V1611.35C435.56 1618.36 441.242 1624.04 448.25 1624.04H678.84C685.849 1624.04 691.53 1618.36 691.53 1611.35V1610.77C691.53 1603.76 685.849 1598.08 678.84 1598.08Z" fill="black" stroke="black" stroke-width="5" stroke-miterlimit="10"/>
<path d="M956.21 1676.82C962.578 1676.82 967.74 1671.66 967.74 1665.29C967.74 1658.92 962.578 1653.76 956.21 1653.76C949.842 1653.76 944.68 1658.92 944.68 1665.29C944.68 1671.66 949.842 1676.82 956.21 1676.82Z" fill="black" stroke="black" stroke-width="5" stroke-miterlimit="10"/>
<path d="M323.61 1507.35C329.978 1507.35 335.14 1502.19 335.14 1495.82C335.14 1489.45 329.978 1484.29 323.61 1484.29C317.242 1484.29 312.08 1489.45 312.08 1495.82C312.08 1502.19 317.242 1507.35 323.61 1507.35Z" fill="black" stroke="black" stroke-width="5" stroke-miterlimit="10"/>
<path d="M1604.51 1633.87C1618.79 1633.87 1630.37 1622.29 1630.37 1608.01C1630.37 1593.73 1618.79 1582.15 1604.51 1582.15C1590.23 1582.15 1578.65 1593.73 1578.65 1608.01C1578.65 1622.29 1590.23 1633.87 1604.51 1633.87Z" fill="black" stroke="black" stroke-width="5" stroke-miterlimit="10"/>
<path d="M1683.43 934.74C1689.8 934.74 1694.96 929.578 1694.96 923.21C1694.96 916.842 1689.8 911.68 1683.43 911.68C1677.06 911.68 1671.9 916.842 1671.9 923.21C1671.9 929.578 1677.06 934.74 1683.43 934.74Z" fill="black" stroke="black" stroke-width="5" stroke-miterlimit="10"/>
<path d="M341.96 1055.55C345.141 1055.55 347.72 1052.97 347.72 1049.79C347.72 1046.61 345.141 1044.03 341.96 1044.03C338.779 1044.03 336.2 1046.61 336.2 1049.79C336.2 1052.97 338.779 1055.55 341.96 1055.55Z" fill="black" stroke="black" stroke-width="5" stroke-miterlimit="10"/>
<path d="M1142.07 624C1148.44 624 1153.6 618.838 1153.6 612.47C1153.6 606.102 1148.44 600.94 1142.07 600.94C1135.7 600.94 1130.54 606.102 1130.54 612.47C1130.54 618.838 1135.7 624 1142.07 624Z" fill="black" stroke="black" stroke-width="5" stroke-miterlimit="10"/>
<path d="M742.72 509.4C757.637 509.4 769.73 497.307 769.73 482.39C769.73 467.473 757.637 455.38 742.72 455.38C727.803 455.38 715.71 467.473 715.71 482.39C715.71 497.307 727.803 509.4 742.72 509.4Z" fill="black" stroke="black" stroke-width="5" stroke-miterlimit="10"/>
<path d="M1344 542.45H1671.35C1681.96 542.45 1692.13 546.664 1699.63 554.166C1707.14 561.667 1711.35 571.841 1711.35 582.45V819.21H1304V582.45C1304 571.841 1308.21 561.667 1315.72 554.166C1323.22 546.664 1333.39 542.45 1344 542.45V542.45Z" stroke="black" stroke-width="4" stroke-miterlimit="10"/>
<path d="M1671.91 617.74H1339.25" stroke="#231F20" stroke-width="4" stroke-linecap="round" stroke-linejoin="round"/>
<path d="M1351.83 592.73C1358.78 592.73 1364.42 587.093 1364.42 580.14C1364.42 573.187 1358.78 567.55 1351.83 567.55C1344.88 567.55 1339.24 573.187 1339.24 580.14C1339.24 587.093 1344.88 592.73 1351.83 592.73Z" stroke="#231F20" stroke-width="4" stroke-linecap="round" stroke-linejoin="round"/>
<path d="M1389.73 592.73C1396.68 592.73 1402.32 587.093 1402.32 580.14C1402.32 573.187 1396.68 567.55 1389.73 567.55C1382.78 567.55 1377.14 573.187 1377.14 580.14C1377.14 587.093 1382.78 592.73 1389.73 592.73Z" stroke="#231F20" stroke-width="4" stroke-linecap="round" stroke-linejoin="round"/>
<path d="M1427.63 592.73C1434.58 592.73 1440.22 587.093 1440.22 580.14C1440.22 573.187 1434.58 567.55 1427.63 567.55C1420.68 567.55 1415.04 573.187 1415.04 580.14C1415.04 587.093 1420.68 592.73 1427.63 592.73Z" stroke="#231F20" stroke-width="4" stroke-linecap="round" stroke-linejoin="round"/>
<path d="M1672.57 593.55L1650.07 571.05" stroke="#231F20" stroke-width="4" stroke-linecap="round" stroke-linejoin="round"/>
<path d="M1650.07 593.55L1672.57 571.05" stroke="#231F20" stroke-width="4" stroke-linecap="round" stroke-linejoin="round"/>
<path d="M284.58 548.84H611.92C622.529 548.84 632.703 553.054 640.204 560.556C647.706 568.057 651.92 578.231 651.92 588.84V1001.9H244.58V588.84C244.58 578.231 248.794 568.057 256.296 560.556C263.797 553.054 273.971 548.84 284.58 548.84Z" stroke="black" stroke-width="4" stroke-miterlimit="10"/>
<path d="M612.46 624.13H279.81" stroke="#231F20" stroke-width="4" stroke-linecap="round" stroke-linejoin="round"/>
<path d="M292.39 599.12C299.343 599.12 304.98 593.483 304.98 586.53C304.98 579.577 299.343 573.94 292.39 573.94C285.437 573.94 279.8 579.577 279.8 586.53C279.8 593.483 285.437 599.12 292.39 599.12Z" stroke="#231F20" stroke-width="4" stroke-linecap="round" stroke-linejoin="round"/>
<path d="M330.29 599.12C337.243 599.12 342.88 593.483 342.88 586.53C342.88 579.577 337.243 573.94 330.29 573.94C323.337 573.94 317.7 579.577 317.7 586.53C317.7 593.483 323.337 599.12 330.29 599.12Z" stroke="#231F20" stroke-width="4" stroke-linecap="round" stroke-linejoin="round"/>
<path d="M368.19 599.12C375.143 599.12 380.78 593.483 380.78 586.53C380.78 579.577 375.143 573.94 368.19 573.94C361.237 573.94 355.6 579.577 355.6 586.53C355.6 593.483 361.237 599.12 368.19 599.12Z" stroke="#231F20" stroke-width="4" stroke-linecap="round" stroke-linejoin="round"/>
<path d="M613.13 599.94L590.63 577.43" stroke="#231F20" stroke-width="4" stroke-linecap="round" stroke-linejoin="round"/>
<path d="M590.63 599.94L613.13 577.43" stroke="#231F20" stroke-width="4" stroke-linecap="round" stroke-linejoin="round"/>
<path d="M568.31 681.31H1501.21C1511.82 681.31 1521.99 685.524 1529.49 693.026C1537 700.527 1541.21 710.701 1541.21 721.31V1524.19H528.31V721.31C528.31 710.701 532.524 700.527 540.026 693.026C547.527 685.524 557.701 681.31 568.31 681.31Z" fill="black" stroke="black" stroke-width="5" stroke-miterlimit="10"/>
<path d="M568.31 701.18H1476.31C1486.92 701.18 1497.09 705.394 1504.59 712.896C1512.1 720.397 1516.31 730.571 1516.31 741.18V1524.18H528.31V741.18C528.31 730.571 532.524 720.397 540.026 712.896C547.527 705.394 557.701 701.18 568.31 701.18Z" fill="white" stroke="black" stroke-width="4" stroke-miterlimit="10"/>
<path d="M1372.33 975.3H1760C1770.61 975.3 1780.78 979.514 1788.28 987.016C1795.79 994.517 1800 1004.69 1800 1015.3V1407.3H1332.33V1015.3C1332.33 1004.69 1336.54 994.517 1344.05 987.016C1351.55 979.514 1361.72 975.3 1372.33 975.3V975.3Z" stroke="black" stroke-width="4" stroke-miterlimit="10"/>
<path d="M1765.26 1050.59H1367.56" stroke="#231F20" stroke-width="4" stroke-linecap="round" stroke-linejoin="round"/>
<path d="M1380.14 1025.58C1387.09 1025.58 1392.73 1019.94 1392.73 1012.99C1392.73 1006.04 1387.09 1000.4 1380.14 1000.4C1373.19 1000.4 1367.55 1006.04 1367.55 1012.99C1367.55 1019.94 1373.19 1025.58 1380.14 1025.58Z" stroke="#231F20" stroke-width="4" stroke-linecap="round" stroke-linejoin="round"/>
<path d="M1418.04 1025.58C1424.99 1025.58 1430.63 1019.94 1430.63 1012.99C1430.63 1006.04 1424.99 1000.4 1418.04 1000.4C1411.09 1000.4 1405.45 1006.04 1405.45 1012.99C1405.45 1019.94 1411.09 1025.58 1418.04 1025.58Z" stroke="#231F20" stroke-width="4" stroke-linecap="round" stroke-linejoin="round"/>
<path d="M1455.94 1025.58C1462.89 1025.58 1468.53 1019.94 1468.53 1012.99C1468.53 1006.04 1462.89 1000.4 1455.94 1000.4C1448.99 1000.4 1443.35 1006.04 1443.35 1012.99C1443.35 1019.94 1448.99 1025.58 1455.94 1025.58Z" stroke="#231F20" stroke-width="4" stroke-linecap="round" stroke-linejoin="round"/>
<path d="M1765.26 1026.4L1742.76 1003.9" stroke="#231F20" stroke-width="4" stroke-linecap="round" stroke-linejoin="round"/>
<path d="M1742.76 1026.4L1765.26 1003.9" stroke="#231F20" stroke-width="4" stroke-linecap="round" stroke-linejoin="round"/>
<path d="M1481.04 776.47H563.54" stroke="#231F20" stroke-width="4" stroke-linecap="round" stroke-linejoin="round"/>
<path d="M576.13 751.46C583.083 751.46 588.72 745.823 588.72 738.87C588.72 731.917 583.083 726.28 576.13 726.28C569.177 726.28 563.54 731.917 563.54 738.87C563.54 745.823 569.177 751.46 576.13 751.46Z" stroke="#231F20" stroke-width="4" stroke-linecap="round" stroke-linejoin="round"/>
<path d="M614.03 751.46C620.983 751.46 626.62 745.823 626.62 738.87C626.62 731.917 620.983 726.28 614.03 726.28C607.077 726.28 601.44 731.917 601.44 738.87C601.44 745.823 607.077 751.46 614.03 751.46Z" stroke="#231F20" stroke-width="4" stroke-linecap="round" stroke-linejoin="round"/>
<path d="M651.92 751.46C658.873 751.46 664.51 745.823 664.51 738.87C664.51 731.917 658.873 726.28 651.92 726.28C644.967 726.28 639.33 731.917 639.33 738.87C639.33 745.823 644.967 751.46 651.92 751.46Z" stroke="#231F20" stroke-width="4" stroke-linecap="round" stroke-linejoin="round"/>
<path d="M1481.04 752.28L1458.54 729.78" stroke="#231F20" stroke-width="4" stroke-linecap="round" stroke-linejoin="round"/>
<path d="M1458.54 752.28L1481.04 729.78" stroke="#231F20" stroke-width="4" stroke-linecap="round" stroke-linejoin="round"/>
<path d="M240 1102.75H702.72C713.329 1102.75 723.503 1106.96 731.004 1114.47C738.506 1121.97 742.72 1132.14 742.72 1142.75V1355.14H200V1142.75C200 1132.14 204.214 1121.97 211.716 1114.47C219.217 1106.96 229.391 1102.75 240 1102.75V1102.75Z" stroke="black" stroke-width="4" stroke-miterlimit="10"/>
<path d="M710.64 1178.04H235.23" stroke="#231F20" stroke-width="4" stroke-linecap="round" stroke-linejoin="round"/>
<path d="M247.81 1153.03C254.763 1153.03 260.4 1147.39 260.4 1140.44C260.4 1133.49 254.763 1127.85 247.81 1127.85C240.857 1127.85 235.22 1133.49 235.22 1140.44C235.22 1147.39 240.857 1153.03 247.81 1153.03Z" stroke="#231F20" stroke-width="4" stroke-linecap="round" stroke-linejoin="round"/>
<path d="M285.71 1153.03C292.663 1153.03 298.3 1147.39 298.3 1140.44C298.3 1133.49 292.663 1127.85 285.71 1127.85C278.757 1127.85 273.12 1133.49 273.12 1140.44C273.12 1147.39 278.757 1153.03 285.71 1153.03Z" stroke="#231F20" stroke-width="4" stroke-linecap="round" stroke-linejoin="round"/>
<path d="M323.61 1153.03C330.563 1153.03 336.2 1147.39 336.2 1140.44C336.2 1133.49 330.563 1127.85 323.61 1127.85C316.657 1127.85 311.02 1133.49 311.02 1140.44C311.02 1147.39 316.657 1153.03 323.61 1153.03Z" stroke="#231F20" stroke-width="4" stroke-linecap="round" stroke-linejoin="round"/>
<path d="M1033.09 988.61L1056.42 1048.16L1065.64 1043.04" stroke="#FF2B4A" stroke-miterlimit="10"/>
<path d="M827.67 1013.94L828.64 975.94" stroke="#FF2B4A" stroke-miterlimit="10"/>
<path d="M1170.14 964.19C1178.31 978.28 1184.31 990.94 1184.31 990.94C1184.31 990.94 1235.31 863.94 1241.98 849.27C1248.65 834.6 1285.64 816.77 1298.98 811.94C1312.8 806.94 1329.15 805.24 1322.65 818.61C1319.65 824.77 1301.31 834.27 1301.31 834.27C1301.31 834.27 1334.98 833.61 1341.31 829.94C1347.64 826.27 1381.31 797.61 1387.97 794.27C1394.63 790.93 1406.06 791.77 1403.64 801.77C1403.64 801.77 1414.47 797.77 1418.47 802.44C1422.47 807.11 1418.89 815.11 1415.39 818.94C1416.67 819.216 1417.87 819.812 1418.86 820.672C1419.85 821.532 1420.61 822.629 1421.06 823.86C1422.47 828.02 1417.47 840.02 1407.39 850.11C1407.39 850.11 1411.06 857.02 1405.31 865.27C1399.56 873.52 1385.64 886.85 1372.31 891.73C1358.98 896.61 1316.31 907.44 1312.64 907.44C1308.97 907.44 1285.15 1043.52 1280.3 1072.61C1275.52 1101.33 1258.01 1213.61 1189.64 1213.61C1171.81 1213.61 1148.64 1199.85 1133.3 1172.26C1094.63 1102.92 1062.3 1018.37 1062.3 1018.37L1170.14 964.19Z" fill="#FEB0A3"/>
<path d="M1184.31 990.94C1184.31 990.94 1181 983.94 1175.95 974.59L1171.65 1027.94L1184.31 990.94Z" fill="#FD8571"/>
<path d="M709.46 975.94C688.64 939.74 656.76 884.42 651.03 875.4C642.4 861.79 603.61 846.67 589.42 846.3C575.23 845.93 562.8 846.3 566.9 856.17C570.41 864.61 590.19 868.74 590.19 868.74C590.19 868.74 556.76 872.74 549.98 869.97C543.2 867.2 505.89 843.48 498.83 841.1C491.77 838.72 480.57 841.1 484.35 850.69C484.35 850.69 473.07 848.23 469.75 853.4C466.43 858.57 471.09 866 475.08 869.32C473.849 869.771 472.752 870.525 471.891 871.513C471.029 872.5 470.43 873.69 470.15 874.97C469.32 879.29 475.93 890.49 487.31 899.08C487.31 899.08 484.64 906.44 491.47 913.81C498.3 921.18 513.93 932.46 527.81 935.45C541.69 938.44 585.45 943.28 589.08 942.77C591.28 942.46 609.88 991.56 626.97 1034.92C631.97 1047.61 674.97 1176.92 703.64 1202.61C732.31 1228.3 789.02 1264.61 829 1139.61C868.98 1014.61 836.64 985.61 836.64 985.61L753.31 984.94L736 1018.39C736 1018.39 715 985.58 709.46 975.94Z" fill="#FEB0A3"/>
<path d="M746.11 998.83L749.47 1044.03L735.97 1018.39L746.11 998.83Z" fill="#FD8571"/>
<path d="M1104 1152.39C1122 1179.28 1156.67 1407.52 1154 1524.19H807.31C807.31 1524.19 795.97 1250.61 829.31 1158.61C862.65 1066.61 1104 1152.39 1104 1152.39Z" fill="#3C3E3B"/>
<path d="M943.98 1313.95L948.64 1513.95" stroke="black" stroke-width="4" stroke-linecap="round" stroke-linejoin="round"/>
<path d="M873.84 674.33C871.5 671.06 864.78 670.33 861.06 671.83C859.225 672.665 857.617 673.926 856.37 675.509C855.123 677.093 854.272 678.951 853.89 680.93C853.167 684.91 853.662 689.016 855.31 692.71C856.978 696.676 859.506 700.223 862.71 703.096C865.914 705.968 869.715 708.094 873.84 709.32" fill="#FD8571"/>
<path d="M1003.64 859.27C1029.31 860.38 1078.78 859.02 1097.31 865.27C1123.98 874.27 1176.42 975.5 1176.42 975.5L1071.31 1040.28C1071.31 1040.28 1103.54 1113.13 1103.42 1113.76C1102.97 1115.98 1103.98 1152.39 1103.98 1152.39L829.31 1158.61L827.08 1022.16C827.08 1022.16 746.64 997.72 734.64 994.16C734.64 994.16 771.27 891.55 810.03 879.65C848.2 867.94 911.03 857.27 911.03 857.27L1003.64 859.27Z" fill="#CDECA9"/>
<path d="M940.44 1023.05C946.824 1023.05 952 1017.87 952 1011.49C952 1005.11 946.824 999.93 940.44 999.93C934.055 999.93 928.88 1005.11 928.88 1011.49C928.88 1017.87 934.055 1023.05 940.44 1023.05Z" fill="black" stroke="black" stroke-width="5" stroke-miterlimit="10"/>
<path d="M959 648.27L975.83 857.27L1003.66 859.27C1003.66 859.27 989 906.94 935.31 906.94C881.62 906.94 873.2 864.16 873.2 864.16L897.06 859.46L911.06 736.94L943.3 642.94L959 648.27Z" fill="#FEB0A3"/>
<path d="M904.75 792.21C923.53 789.48 947.53 770.61 947.53 770.61V738.16L909.85 747.65L904.75 792.21Z" fill="#FD8571"/>
<path d="M984.19 859.27L940.64 1003.07L891.23 860.87" stroke="black" stroke-width="5" stroke-linecap="round" stroke-linejoin="round"/>
<path d="M947.53 738.16C931.09 753.27 897.75 768.83 879.09 749.27C860.43 729.71 876.86 632.38 876.86 632.38L951.98 636.38L947.53 738.16Z" fill="#FEB0A3"/>
<path d="M963.69 689.89H963.57L963.97 689.95C963.874 689.934 963.78 689.907 963.69 689.87L964.05 690.02C963.961 689.98 963.877 689.929 963.8 689.87L964.1 690.11L963.87 689.88L964.11 690.18C964.042 690.098 963.985 690.007 963.94 689.91L964.09 690.27C964.054 690.182 964.024 690.092 964 690L964.06 690.4C964.045 690.304 964.045 690.206 964.06 690.11L964 690.51C964.017 690.432 964.041 690.355 964.07 690.28L963.92 690.64C963.954 690.557 964.002 690.479 964.06 690.41L963.82 690.71C963.882 690.636 963.953 690.569 964.03 690.51L963.73 690.74C963.807 690.681 963.891 690.63 963.98 690.59L963.62 690.74C963.719 690.698 963.823 690.671 963.93 690.66L963.53 690.71C963.616 690.7 963.703 690.7 963.79 690.71L963.39 690.66C963.469 690.669 963.546 690.689 963.62 690.72L963.27 690.57C963.338 690.597 963.403 690.634 963.46 690.68L963.16 690.45C963.226 690.496 963.284 690.554 963.33 690.62L963.1 690.32C963.152 690.393 963.199 690.47 963.24 690.55L963.08 690.19C963.121 690.282 963.148 690.38 963.16 690.48V690.08C963.17 690.18 963.17 690.28 963.16 690.38L963.22 689.98C963.201 690.071 963.178 690.161 963.15 690.25L963.3 689.89L963.19 690.08L963.42 689.77C963.378 689.83 963.327 689.884 963.27 689.93L963.57 689.7L963.38 689.8L963.74 689.65C963.666 689.679 963.589 689.699 963.51 689.71L963.91 689.66H963.64L964.04 689.71C963.933 689.699 963.829 689.672 963.73 689.63L964.09 689.78L963.86 689.65L964.17 689.88L964 689.71L964.24 690.01C964.201 689.961 964.167 689.907 964.14 689.85L964.29 690.21C964.29 690.21 964.29 690.13 964.29 690.09C964.181 689.716 963.935 689.398 963.6 689.2C963.424 689.076 963.215 689.006 963 689C962.805 688.939 962.595 688.939 962.4 689C962.211 689.049 962.035 689.136 961.88 689.254C961.726 689.373 961.596 689.521 961.5 689.69C961.301 690.039 961.247 690.452 961.35 690.84C961.446 691.21 961.627 691.553 961.88 691.84L962.02 691.98C962.158 692.101 962.305 692.211 962.46 692.31C962.676 692.439 962.913 692.531 963.16 692.58C963.344 692.622 963.531 692.649 963.72 692.66C963.915 692.652 964.109 692.629 964.3 692.59C964.544 692.549 964.779 692.46 964.99 692.33C965.309 692.138 965.579 691.874 965.78 691.56C965.819 691.513 965.85 691.458 965.87 691.4C965.959 691.231 966.029 691.054 966.08 690.87C966.148 690.623 966.172 690.365 966.15 690.11C966.143 689.921 966.116 689.733 966.07 689.55C966.016 689.367 965.946 689.19 965.86 689.02C965.836 688.96 965.806 688.903 965.77 688.85C965.665 688.691 965.548 688.541 965.42 688.4C965.196 688.181 964.931 688.007 964.64 687.89C964.524 687.836 964.403 687.793 964.28 687.76C964.085 687.721 963.888 687.698 963.69 687.69C963.499 687.703 963.308 687.727 963.12 687.76L962.91 687.82C962.732 687.886 962.559 687.963 962.39 688.05C962.227 688.149 962.073 688.263 961.93 688.39L961.77 688.54C961.645 688.681 961.532 688.832 961.43 688.99C961.335 689.158 961.258 689.336 961.2 689.52C961.126 689.794 961.089 690.076 961.09 690.36C961.101 690.57 961.138 690.779 961.2 690.98C961.33 691.376 961.541 691.74 961.82 692.05L962.01 692.23C962.161 692.363 962.325 692.481 962.5 692.58C962.876 692.78 963.294 692.89 963.72 692.9C964.117 692.896 964.497 692.739 964.78 692.46C964.923 692.33 965.03 692.164 965.09 691.98C965.178 691.8 965.223 691.601 965.22 691.4C965.215 691.003 965.058 690.623 964.78 690.34C964.493 690.068 964.115 689.911 963.72 689.9L963.69 689.89Z" fill="#FF2B4A"/>
<path d="M952 662.16L938.16 648.75C938.16 648.75 909.99 661.75 898.88 661.05C887.77 660.35 854.66 655.94 863.77 612.6C863.77 612.6 873.99 621.71 883.77 621.27C893.55 620.83 908.88 611.27 928.44 612.6C948 613.93 963.77 629.6 968.88 648.75C973.99 667.9 977.59 682.99 976.35 693.75C975.11 704.51 965 723.53 965 723.53L961 673.39L952 662.16Z" fill="#CDECA9"/>
<path d="M898.86 685.94L907.31 709.32L887.53 715.27L898.86 685.94Z" fill="#FF2B4A" stroke="#FF2B4A" stroke-width="2" stroke-linecap="round" stroke-linejoin="round"/>
<path d="M948.48 663.1C953.48 657.6 970.18 637.86 985.81 656.77C999.14 672.9 980.31 702.58 957.14 697.44C933.97 692.3 948.48 663.1 948.48 663.1Z" fill="#FEB0A3"/>
<path d="M921.8 690.68C923.645 690.68 925.14 688.558 925.14 685.94C925.14 683.322 923.645 681.2 921.8 681.2C919.955 681.2 918.46 683.322 918.46 685.94C918.46 688.558 919.955 690.68 921.8 690.68Z" fill="black"/>
<path d="M966.46 659.67C968.555 659.345 970.7 659.647 972.624 660.54C974.547 661.433 976.163 662.875 977.267 664.686C978.371 666.496 978.914 668.593 978.828 670.712C978.741 672.83 978.028 674.876 976.78 676.59" stroke="black" stroke-width="5" stroke-linecap="round" stroke-linejoin="round"/>
<path d="M923.22 713.44C919.481 713.863 915.945 715.363 913.042 717.758C910.14 720.152 907.995 723.339 906.87 726.93" stroke="black" stroke-width="5" stroke-linecap="round" stroke-linejoin="round"/>
<path d="M1225.52 880.63C1222.52 883.86 1221.67 888.57 1222.24 892.9C1222.81 897.23 1224.7 901.27 1226.74 905.14C1241.08 932.19 1266.43 954.74 1296.67 959.51C1299.86 960.02 1303.19 960.31 1306.28 959.37C1309.37 958.43 1312.19 956 1312.72 952.81C1313.25 949.62 1310.72 946.02 1307.53 946.11" stroke="black" stroke-width="5" stroke-linecap="round" stroke-linejoin="round"/>
<path d="M1403.21 850C1400.99 849.322 1398.6 849.493 1396.5 850.48C1394.42 851.466 1392.47 852.695 1390.68 854.14C1380.87 861.39 1370.17 868.34 1358.05 869.74" stroke="black" stroke-width="5" stroke-linecap="round" stroke-linejoin="round"/>
<path d="M1412.31 819.22C1409.94 819.06 1407.61 820.5 1405.68 821.89C1403.8 823.355 1402.07 824.996 1400.51 826.79C1387.73 840.223 1371.88 850.364 1354.33 856.35" stroke="black" stroke-width="5" stroke-linecap="round" stroke-linejoin="round"/>
<path d="M1399.72 804.37C1393.07 806.91 1387.47 811.62 1382.48 816.7C1377.49 821.78 1372.96 827.33 1367.67 832.09C1362.38 836.85 1356.13 840.87 1349.12 842.09" stroke="black" stroke-width="5" stroke-linecap="round" stroke-linejoin="round"/>
<path d="M491.44 898.36C493.546 897.38 495.94 897.216 498.16 897.9C500.351 898.596 502.455 899.542 504.43 900.72C515.15 906.55 526.7 911.95 538.9 911.67" stroke="black" stroke-width="5" stroke-linecap="round" stroke-linejoin="round"/>
<path d="M478.18 869.17C480.51 868.68 483.02 869.79 485.12 870.89C487.174 872.088 489.112 873.474 490.91 875.03C505.43 886.565 522.521 894.421 540.73 897.93" stroke="black" stroke-width="5" stroke-linecap="round" stroke-linejoin="round"/>
<path d="M488.6 852.72C495.54 854.32 501.74 858.21 507.38 862.55C513.02 866.89 518.27 871.76 524.18 875.74C530.09 879.72 536.82 882.85 543.93 883.13" stroke="black" stroke-width="5" stroke-linecap="round" stroke-linejoin="round"/>
<path d="M882.8 692.43C884.208 692.43 885.35 690.814 885.35 688.82C885.35 686.826 884.208 685.21 882.8 685.21C881.392 685.21 880.25 686.826 880.25 688.82C880.25 690.814 881.392 692.43 882.8 692.43Z" fill="black"/>
</svg>
